<svg width="1473" height="801" viewBox="0 0 1473 801" fill="none" xmlns="http://www.w3.org/2000/svg">
<path fill-rule="evenodd" clip-rule="evenodd" d="M0 396.445V198.223V0H32.0823H64.1645V76.6571V153.313L71.2604 146.54C89.3926 129.232 114.449 116.484 142.344 110.371C149.569 108.789 156.442 108.32 171.296 108.397C192.748 108.509 202.976 110.442 221.631 117.911C257.014 132.08 287.513 164.055 301.752 201.911C313.416 232.918 313.865 274.266 302.876 305.209C288.771 344.924 258.561 377.18 221.609 391.975C202.978 399.436 192.741 401.37 171.296 401.482C156.442 401.559 149.569 401.09 142.344 399.508C114.405 393.386 90.2268 381.087 72.4715 363.965L64.1645 355.955V376.2V396.445H32.0823H0ZM1404.74 152.739V76.3695V0H1438.55H1472.35V198.223V396.445H1438.55H1404.74V376.792V357.14L1398.16 363.414C1380.03 380.68 1359.88 391.653 1333.97 398.381C1322.7 401.307 1320.01 401.565 1301.62 401.485C1283.89 401.41 1280.3 401.06 1270.59 398.464C1243.61 391.251 1223.69 379.992 1204.78 361.265C1185.84 342.513 1172.76 319.21 1165.68 291.605C1161.7 276.09 1160.63 245.587 1163.48 229.159C1165.68 216.512 1171.6 198.093 1176.81 187.714C1194.31 152.83 1225.99 125.177 1260.95 114.256C1277.5 109.084 1283.03 108.303 1302.77 108.34C1319.34 108.37 1323.16 108.75 1333.71 111.405C1359.08 117.793 1380 129.174 1398.16 146.465L1404.74 152.739ZM410.631 155.6C422.969 131.104 443.97 114.715 469.776 109.442C483.579 106.622 504.189 107.684 525.633 112.322L531.649 113.624V146.757C531.649 164.98 531.432 179.89 531.168 179.89C530.903 179.89 525.361 178.641 518.85 177.114C503.219 173.448 491.72 172.568 480.145 174.153C440.23 179.618 419.955 208.622 413.656 269.262C413.035 275.249 412.517 306.313 412.506 338.296L412.486 396.445H378.112H343.739V255.512V114.58H375.248H406.757L406.761 138.928L406.764 163.276L410.631 155.6ZM572.161 120.979C587.581 116.495 612.599 111.8 633.625 109.442C660.285 106.452 691.333 107.618 713.7 112.449C763.04 123.105 793.104 149.225 804.518 191.348L807.157 201.087L807.514 298.766L807.87 396.445H776.891H745.913L745.894 377.253L745.875 358.061L739.306 365.173C723.683 382.085 701.999 393.822 676.019 399.431C662.559 402.338 630.424 402.37 616.009 399.493C572.752 390.859 546.292 371.195 535.576 339.717C532.999 332.149 532.37 327.98 531.946 315.667C531.016 288.666 536.531 273.082 552.614 257.258C566.177 243.915 580.291 237.067 606.381 231.176C616.307 228.934 621.168 228.745 679.867 228.316L742.724 227.855L742.243 215.617C741.681 201.321 739.267 194.962 731.425 187.115C708.839 164.516 649.406 162.681 582.923 182.532L566.023 187.578V155.17V122.763L572.161 120.979ZM242.881 254.939C242.93 211.926 211.052 175.657 167.923 169.659C156.912 168.128 150.615 168.234 140.199 170.123C129.704 172.029 124.903 173.612 115.725 178.2C95.5456 188.285 80.4348 205.299 73.0101 226.295C52.9277 283.088 94.8993 341.447 155.828 341.447C204.459 341.447 242.825 303.321 242.881 254.939ZM1395.49 217.033C1384.55 194.729 1363.99 178.004 1339.97 171.861C1308.57 163.828 1276.57 172.402 1254.65 194.727C1237.89 211.789 1229.49 232.049 1229.47 255.512C1229.45 265.861 1232.25 279.838 1236.14 288.913C1243.27 305.531 1259.04 322.651 1274.7 330.758C1290.51 338.946 1298.59 340.874 1317.09 340.874C1335.56 340.874 1343.6 338.962 1359.49 330.788C1372.15 324.271 1387.32 309.093 1394.07 296.188C1401.51 281.965 1404.08 271.345 1404.06 254.939C1404.04 238.821 1402.21 230.737 1395.49 217.033ZM740.838 292.165C742.369 287.64 743.621 283.472 743.621 282.901C743.621 281.204 639.178 281.792 629.531 283.544C608.505 287.363 597.98 297.87 599.588 313.438C601.601 332.945 621.466 343.791 655.042 343.716C699.081 343.617 729.644 325.253 740.838 292.165ZM498.045 496.111C513.889 465.695 546.77 443.061 582.734 437.816C600.98 435.155 628.547 437.165 650.749 442.779C657.135 444.393 662.598 445.714 662.888 445.714C663.178 445.714 663.415 460.464 663.415 478.492C663.415 509.259 663.293 511.219 661.41 510.445C652.164 506.64 639.576 502.477 631.929 500.694C597.194 492.597 569.029 501.628 557.783 524.472C554.514 531.113 554.002 533.423 553.605 543.303L553.152 554.565H592.816H632.479V584.928V615.292H592.949H553.419V728.726V842.159H519.618H485.817V728.726V615.292H466.339H446.86V584.928V554.565H466.339H485.817L485.826 545.112C485.842 526.956 489.392 512.721 498.045 496.111ZM945.281 515.608V481.234V446.86H979.655H1014.03V481.234V515.608H979.655H945.281ZM187.624 559.408C211.077 553.631 223.451 551.667 257.231 548.357C265.971 547.501 297.391 548.85 308.78 550.571C360.78 558.426 395.155 582.59 408.398 620.597C409.717 624.383 410.779 627.318 411.637 630.311C415.316 643.147 415.24 657.06 415.617 743.907L416.042 842.159H384.473H352.905V820.743V799.326L345.652 806.797C331.467 821.407 311.549 832.739 290.204 838.341C275.022 842.328 245.804 843.365 227.95 840.551C181.249 833.192 150.643 809.89 141.272 774.557C138.529 764.214 138.55 740.088 141.31 729.871C149.062 701.176 170.246 682.597 205.235 673.806C225.436 668.732 236.942 667.998 296.4 667.998H350.947L350.309 656.428C349.764 646.535 349.151 643.802 346.084 637.571C341.95 629.173 335.975 623.554 325.979 618.667C313.628 612.628 302.912 610.548 280.668 609.875C246.133 608.83 228.254 611.825 175.02 627.57C173.143 628.125 173.015 626.074 173.015 595.585V563.007L187.624 559.408ZM752.727 595.087C765.469 569.693 788.005 553.348 816.424 548.887C828.01 547.069 854.543 549.251 869.086 553.218L872.523 554.156L872.827 587.44L873.13 620.723L862.514 617.886C848 614.006 826.488 613.069 814.279 615.786C787.982 621.636 770.027 641.326 761.432 673.739C755.04 697.848 754.725 702.268 754.23 774.844L753.771 842.159H720.051H686.331V698.362V554.565H717.268H748.204V579.332V604.1L752.727 595.087ZM906.324 616.438V585.501V554.565H960.176H1014.03V698.362V842.159H980.228H946.427V729.299V616.438H926.375H906.324ZM311.496 773.925C330.24 765.062 344.056 748.504 349.925 727.866L351.635 721.851L301.569 722C274.032 722.081 247.644 722.594 242.928 723.141C217.015 726.141 203.547 738.782 207.347 756.539C211.295 774.988 229.232 783.724 263.167 783.724C282.263 783.724 297.162 780.703 311.496 773.925Z" fill="url(#paint0_linear_182_397)"/>
<path d="M987.102 108.975C961.101 112.722 934.866 125.894 914.058 145.648L907.47 151.903V133.241V114.58H875.96H844.451V255.512V396.445H878.825H913.199V321.908C913.199 238.598 913.185 238.772 921.167 221.711C931.7 199.195 948.793 184.157 973.353 175.798C980.895 173.232 985.16 172.582 997.418 172.134C1014.9 171.496 1021.86 172.668 1033.38 178.186C1046.55 184.497 1055.78 195.205 1061.2 210.446C1066.88 226.427 1066.72 216.89 1066.73 539.956L1066.74 842.159H1100.54H1134.34V795.813V749.467L1147.8 737.404L1161.26 725.342L1219.7 783.75L1278.14 842.159H1326.26H1374.38L1292.46 760.235L1210.54 678.312L1272.41 616.438L1334.27 554.565L1289.02 554.51L1243.76 554.454L1189.08 609.794L1134.4 665.134L1134.37 449.393C1134.35 303.36 1133.94 230.084 1133.11 222.607C1129.55 190.687 1117.48 164.188 1097.14 143.645C1078.17 124.477 1057.29 113.894 1029.56 109.397C1018.36 107.581 998.17 107.38 987.102 108.975Z" fill="url(#paint1_linear_182_397)"/>
<defs>
<linearGradient id="paint0_linear_182_397" x1="736.173" y1="0" x2="736.173" y2="842.159" gradientUnits="userSpaceOnUse">
<stop stop-color="white" stop-opacity="0"/>
<stop offset="1" stop-color="white"/>
</linearGradient>
<linearGradient id="paint1_linear_182_397" x1="736.173" y1="0" x2="736.173" y2="842.159" gradientUnits="userSpaceOnUse">
<stop stop-color="white" stop-opacity="0"/>
<stop offset="1" stop-color="white"/>
</linearGradient>
</defs>
</svg>
