<svg width="1272" height="233" viewBox="0 0 1272 233" fill="none" xmlns="http://www.w3.org/2000/svg">
<mask id="path-1-inside-1_273_1307" fill="white">
<path fill-rule="evenodd" clip-rule="evenodd" d="M-196.29 -186.178V-418.987V-651.796H-158.609H-120.929V-561.763V-471.732L-112.595 -479.687C-91.2995 -500.015 -61.8714 -514.988 -29.1086 -522.167C-20.6238 -524.026 -12.5509 -524.576 4.89502 -524.486C30.0895 -524.354 42.1027 -522.084 64.0123 -513.311C105.569 -496.67 141.39 -459.116 158.113 -414.655C171.812 -378.237 172.34 -329.676 159.433 -293.334C142.867 -246.688 107.386 -208.805 63.9868 -191.428C42.1041 -182.666 30.0814 -180.394 4.89502 -180.262C-12.5509 -180.172 -20.6238 -180.723 -29.1086 -182.581C-61.9225 -189.771 -90.3198 -204.216 -111.173 -224.325L-120.929 -233.733V-209.956V-186.178H-158.609H-196.29ZM1453.56 -472.407V-562.101V-651.796H1493.26H1532.96V-418.987V-186.178H1493.26H1453.56V-209.26V-232.342L1445.82 -224.973C1424.53 -204.694 1400.87 -191.806 1370.43 -183.904C1357.19 -180.468 1354.04 -180.165 1332.44 -180.258C1311.62 -180.347 1307.4 -180.758 1296 -183.807C1264.31 -192.278 1240.92 -205.503 1218.7 -227.497C1196.46 -249.521 1181.1 -276.889 1172.78 -309.311C1168.11 -327.534 1166.85 -363.358 1170.2 -382.653C1172.78 -397.507 1179.73 -419.139 1185.85 -431.329C1206.41 -472.3 1243.61 -504.778 1284.67 -517.604C1304.12 -523.678 1310.6 -524.596 1333.79 -524.553C1353.25 -524.517 1357.74 -524.071 1370.12 -520.953C1399.93 -513.45 1424.5 -500.084 1445.82 -479.776L1453.56 -472.407ZM285.99 -469.046C300.48 -497.816 325.146 -517.066 355.454 -523.259C371.666 -526.57 395.871 -525.323 421.058 -519.875L428.123 -518.347V-479.433C428.123 -458.03 427.868 -440.519 427.558 -440.519C427.247 -440.519 420.737 -441.985 413.091 -443.779C394.733 -448.084 381.227 -449.118 367.633 -447.257C320.753 -440.837 296.94 -406.773 289.542 -335.553C288.813 -328.521 288.205 -292.036 288.191 -254.473L288.168 -186.178H247.797H207.425V-351.701V-517.224H244.432H281.44L281.444 -488.628L281.448 -460.031L285.99 -469.046ZM475.703 -509.708C493.814 -514.974 523.198 -520.489 547.891 -523.259C579.204 -526.769 615.668 -525.401 641.938 -519.726C699.887 -507.211 735.198 -476.534 748.602 -427.061L751.702 -415.623L752.121 -300.9L752.54 -186.178H716.156H679.772L679.75 -208.719L679.727 -231.26L672.012 -222.907C653.663 -203.044 628.196 -189.259 597.683 -182.671C581.875 -179.257 544.133 -179.22 527.202 -182.599C476.398 -192.739 445.321 -215.834 432.734 -252.805C429.708 -261.693 428.969 -266.589 428.471 -281.051C427.38 -312.763 433.857 -331.066 452.745 -349.65C468.676 -365.323 485.252 -373.365 515.894 -380.284C527.552 -382.916 533.261 -383.139 602.202 -383.643L676.027 -384.184L675.461 -398.558C674.802 -415.348 671.966 -422.817 662.756 -432.032C636.23 -458.575 566.426 -460.73 488.344 -437.415L468.494 -431.489V-469.551V-507.613L475.703 -509.708ZM88.97 -352.374C89.0279 -402.892 51.5874 -445.49 0.933273 -452.534C-11.9991 -454.332 -19.3952 -454.208 -31.6277 -451.989C-43.9545 -449.751 -49.593 -447.892 -60.3722 -442.503C-84.073 -430.658 -101.82 -410.676 -110.541 -386.017C-134.127 -319.314 -84.8319 -250.773 -13.2722 -250.773C43.8441 -250.773 88.9041 -295.551 88.97 -352.374ZM1442.68 -396.894C1429.84 -423.09 1405.7 -442.734 1377.49 -449.948C1340.6 -459.383 1303.02 -449.313 1277.27 -423.093C1257.59 -403.054 1247.73 -379.259 1247.7 -351.701C1247.68 -339.547 1250.96 -323.132 1255.53 -312.472C1263.91 -292.955 1282.44 -272.848 1300.82 -263.327C1319.39 -253.71 1328.88 -251.445 1350.61 -251.445C1372.31 -251.445 1381.75 -253.691 1400.4 -263.292C1415.27 -270.945 1433.09 -288.772 1441.02 -303.928C1449.76 -320.633 1452.78 -333.106 1452.75 -352.374C1452.73 -371.304 1450.58 -380.8 1442.68 -396.894ZM673.812 -308.653C675.609 -313.967 677.08 -318.863 677.08 -319.533C677.08 -321.526 554.414 -320.836 543.083 -318.778C518.389 -314.293 506.028 -301.953 507.916 -283.669C510.28 -260.758 533.611 -248.019 573.046 -248.108C624.768 -248.224 660.664 -269.792 673.812 -308.653ZM388.656 -69.1224C407.264 -104.846 445.882 -131.429 488.122 -137.588C509.551 -140.714 541.927 -138.353 568.003 -131.76C575.504 -129.864 581.921 -128.312 582.261 -128.312C582.602 -128.312 582.88 -110.989 582.88 -89.8154C582.88 -53.6803 582.736 -51.3779 580.525 -52.2875C569.665 -56.7567 554.881 -61.6456 545.9 -63.7396C505.104 -73.2498 472.025 -62.6429 458.817 -35.8134C454.978 -28.0136 454.376 -25.3005 453.909 -13.6964L453.378 -0.469421H499.962H546.546V35.1921V70.8535H500.119H453.691V204.079V337.305H413.993H374.294V204.079V70.8535H351.417H328.54V35.1921V-0.469421H351.417H374.294L374.305 -11.5716C374.324 -32.8958 378.493 -49.6136 388.656 -69.1224ZM913.926 -46.2238V-86.5952V-126.967H954.298H994.669V-86.5952V-46.2238H954.298H913.926ZM24.0715 5.21893C51.6169 -1.56616 66.1493 -3.87274 105.824 -7.7605C116.089 -8.76575 152.991 -7.18182 166.367 -5.16058C227.44 4.06567 267.813 32.4454 283.367 77.0842C284.916 81.5314 286.163 84.9778 287.171 88.4928C291.492 103.569 291.403 119.909 291.845 221.91L292.344 337.305H255.267H218.191V312.152V286.998L209.673 295.772C193.013 312.932 169.619 326.241 144.549 332.821C126.719 337.503 92.4029 338.721 71.434 335.416C16.5839 326.774 -19.3615 299.406 -30.3681 257.908C-33.5898 245.76 -33.5656 217.425 -30.3238 205.425C-21.2186 171.723 3.66098 149.902 44.7551 139.578C68.4814 133.618 81.9951 132.756 151.827 132.756H215.891L215.142 119.167C214.502 107.548 213.782 104.338 210.18 97.0196C205.325 87.1569 198.307 80.5576 186.567 74.8181C172.061 67.7248 159.475 65.2822 133.35 64.491C92.7892 63.2637 71.7906 66.7813 9.26859 85.2741C7.0643 85.9255 6.91359 83.5167 6.91359 47.7086V9.44586L24.0715 5.21893ZM687.775 47.1231C702.74 17.298 729.208 -1.89856 762.586 -7.13739C776.193 -9.27307 807.356 -6.71094 824.436 -2.05072L828.473 -0.949951L828.83 38.1418L829.187 77.2322L816.718 73.9003C799.671 69.3437 774.406 68.2429 760.066 71.4335C729.181 78.3047 708.094 101.43 697.999 139.499C690.492 167.814 690.122 173.005 689.54 258.244L689.001 337.305H649.397H609.794V168.418V-0.469421H646.129H682.463V28.6195V57.7086L687.775 47.1231ZM868.172 72.1992V35.8649V-0.469421H931.421H994.669V168.418V337.305H954.971H915.272V204.752V72.1992H891.722H868.172ZM169.557 257.165C191.571 246.756 207.798 227.309 214.691 203.07L216.7 196.005L157.898 196.18C125.556 196.276 94.5641 196.878 89.0252 197.52C58.5905 201.043 42.7729 215.891 47.2353 236.745C51.8726 258.414 72.9398 268.674 112.796 268.674C135.224 268.674 152.722 265.126 169.557 257.165Z"/>
<path d="M963.045 -523.806C932.507 -519.406 901.694 -503.935 877.255 -480.735L869.518 -473.389V-495.307V-517.224H832.51H795.503V-351.701V-186.178H835.875H876.246V-273.721C876.246 -371.567 876.23 -371.362 885.604 -391.4C897.975 -417.845 918.051 -435.507 946.896 -445.324C955.754 -448.338 960.764 -449.101 975.16 -449.628C995.688 -450.377 1003.87 -449.001 1017.39 -442.52C1032.86 -435.107 1043.7 -422.532 1050.07 -404.631C1056.74 -385.861 1056.55 -397.063 1056.56 -17.6273L1056.57 337.305H1096.27H1135.97V282.872V228.44L1151.78 214.272L1167.59 200.105L1236.23 268.705L1304.87 337.305H1361.38H1417.89L1321.68 241.087L1225.47 144.869L1298.13 72.1992L1370.79 -0.469421L1317.64 -0.533936L1264.49 -0.600037L1200.26 64.3969L1136.04 129.392L1136 -123.991C1135.98 -295.505 1135.5 -381.567 1134.52 -390.348C1130.34 -427.838 1116.17 -458.96 1092.29 -483.088C1070 -505.6 1045.48 -518.029 1012.91 -523.311C999.761 -525.444 976.043 -525.679 963.045 -523.806Z"/>
</mask>
<path fill-rule="evenodd" clip-rule="evenodd" d="M-196.29 -186.178V-418.987V-651.796H-158.609H-120.929V-561.763V-471.732L-112.595 -479.687C-91.2995 -500.015 -61.8714 -514.988 -29.1086 -522.167C-20.6238 -524.026 -12.5509 -524.576 4.89502 -524.486C30.0895 -524.354 42.1027 -522.084 64.0123 -513.311C105.569 -496.67 141.39 -459.116 158.113 -414.655C171.812 -378.237 172.34 -329.676 159.433 -293.334C142.867 -246.688 107.386 -208.805 63.9868 -191.428C42.1041 -182.666 30.0814 -180.394 4.89502 -180.262C-12.5509 -180.172 -20.6238 -180.723 -29.1086 -182.581C-61.9225 -189.771 -90.3198 -204.216 -111.173 -224.325L-120.929 -233.733V-209.956V-186.178H-158.609H-196.29ZM1453.56 -472.407V-562.101V-651.796H1493.26H1532.96V-418.987V-186.178H1493.26H1453.56V-209.26V-232.342L1445.82 -224.973C1424.53 -204.694 1400.87 -191.806 1370.43 -183.904C1357.19 -180.468 1354.04 -180.165 1332.44 -180.258C1311.62 -180.347 1307.4 -180.758 1296 -183.807C1264.31 -192.278 1240.92 -205.503 1218.7 -227.497C1196.46 -249.521 1181.1 -276.889 1172.78 -309.311C1168.11 -327.534 1166.85 -363.358 1170.2 -382.653C1172.78 -397.507 1179.73 -419.139 1185.85 -431.329C1206.41 -472.3 1243.61 -504.778 1284.67 -517.604C1304.12 -523.678 1310.6 -524.596 1333.79 -524.553C1353.25 -524.517 1357.74 -524.071 1370.12 -520.953C1399.93 -513.45 1424.5 -500.084 1445.82 -479.776L1453.56 -472.407ZM285.99 -469.046C300.48 -497.816 325.146 -517.066 355.454 -523.259C371.666 -526.57 395.871 -525.323 421.058 -519.875L428.123 -518.347V-479.433C428.123 -458.03 427.868 -440.519 427.558 -440.519C427.247 -440.519 420.737 -441.985 413.091 -443.779C394.733 -448.084 381.227 -449.118 367.633 -447.257C320.753 -440.837 296.94 -406.773 289.542 -335.553C288.813 -328.521 288.205 -292.036 288.191 -254.473L288.168 -186.178H247.797H207.425V-351.701V-517.224H244.432H281.44L281.444 -488.628L281.448 -460.031L285.99 -469.046ZM475.703 -509.708C493.814 -514.974 523.198 -520.489 547.891 -523.259C579.204 -526.769 615.668 -525.401 641.938 -519.726C699.887 -507.211 735.198 -476.534 748.602 -427.061L751.702 -415.623L752.121 -300.9L752.54 -186.178H716.156H679.772L679.75 -208.719L679.727 -231.26L672.012 -222.907C653.663 -203.044 628.196 -189.259 597.683 -182.671C581.875 -179.257 544.133 -179.22 527.202 -182.599C476.398 -192.739 445.321 -215.834 432.734 -252.805C429.708 -261.693 428.969 -266.589 428.471 -281.051C427.38 -312.763 433.857 -331.066 452.745 -349.65C468.676 -365.323 485.252 -373.365 515.894 -380.284C527.552 -382.916 533.261 -383.139 602.202 -383.643L676.027 -384.184L675.461 -398.558C674.802 -415.348 671.966 -422.817 662.756 -432.032C636.23 -458.575 566.426 -460.73 488.344 -437.415L468.494 -431.489V-469.551V-507.613L475.703 -509.708ZM88.97 -352.374C89.0279 -402.892 51.5874 -445.49 0.933273 -452.534C-11.9991 -454.332 -19.3952 -454.208 -31.6277 -451.989C-43.9545 -449.751 -49.593 -447.892 -60.3722 -442.503C-84.073 -430.658 -101.82 -410.676 -110.541 -386.017C-134.127 -319.314 -84.8319 -250.773 -13.2722 -250.773C43.8441 -250.773 88.9041 -295.551 88.97 -352.374ZM1442.68 -396.894C1429.84 -423.09 1405.7 -442.734 1377.49 -449.948C1340.6 -459.383 1303.02 -449.313 1277.27 -423.093C1257.59 -403.054 1247.73 -379.259 1247.7 -351.701C1247.68 -339.547 1250.96 -323.132 1255.53 -312.472C1263.91 -292.955 1282.44 -272.848 1300.82 -263.327C1319.39 -253.71 1328.88 -251.445 1350.61 -251.445C1372.31 -251.445 1381.75 -253.691 1400.4 -263.292C1415.27 -270.945 1433.09 -288.772 1441.02 -303.928C1449.76 -320.633 1452.78 -333.106 1452.75 -352.374C1452.73 -371.304 1450.58 -380.8 1442.68 -396.894ZM673.812 -308.653C675.609 -313.967 677.08 -318.863 677.08 -319.533C677.08 -321.526 554.414 -320.836 543.083 -318.778C518.389 -314.293 506.028 -301.953 507.916 -283.669C510.28 -260.758 533.611 -248.019 573.046 -248.108C624.768 -248.224 660.664 -269.792 673.812 -308.653ZM388.656 -69.1224C407.264 -104.846 445.882 -131.429 488.122 -137.588C509.551 -140.714 541.927 -138.353 568.003 -131.76C575.504 -129.864 581.921 -128.312 582.261 -128.312C582.602 -128.312 582.88 -110.989 582.88 -89.8154C582.88 -53.6803 582.736 -51.3779 580.525 -52.2875C569.665 -56.7567 554.881 -61.6456 545.9 -63.7396C505.104 -73.2498 472.025 -62.6429 458.817 -35.8134C454.978 -28.0136 454.376 -25.3005 453.909 -13.6964L453.378 -0.469421H499.962H546.546V35.1921V70.8535H500.119H453.691V204.079V337.305H413.993H374.294V204.079V70.8535H351.417H328.54V35.1921V-0.469421H351.417H374.294L374.305 -11.5716C374.324 -32.8958 378.493 -49.6136 388.656 -69.1224ZM913.926 -46.2238V-86.5952V-126.967H954.298H994.669V-86.5952V-46.2238H954.298H913.926ZM24.0715 5.21893C51.6169 -1.56616 66.1493 -3.87274 105.824 -7.7605C116.089 -8.76575 152.991 -7.18182 166.367 -5.16058C227.44 4.06567 267.813 32.4454 283.367 77.0842C284.916 81.5314 286.163 84.9778 287.171 88.4928C291.492 103.569 291.403 119.909 291.845 221.91L292.344 337.305H255.267H218.191V312.152V286.998L209.673 295.772C193.013 312.932 169.619 326.241 144.549 332.821C126.719 337.503 92.4029 338.721 71.434 335.416C16.5839 326.774 -19.3615 299.406 -30.3681 257.908C-33.5898 245.76 -33.5656 217.425 -30.3238 205.425C-21.2186 171.723 3.66098 149.902 44.7551 139.578C68.4814 133.618 81.9951 132.756 151.827 132.756H215.891L215.142 119.167C214.502 107.548 213.782 104.338 210.18 97.0196C205.325 87.1569 198.307 80.5576 186.567 74.8181C172.061 67.7248 159.475 65.2822 133.35 64.491C92.7892 63.2637 71.7906 66.7813 9.26859 85.2741C7.0643 85.9255 6.91359 83.5167 6.91359 47.7086V9.44586L24.0715 5.21893ZM687.775 47.1231C702.74 17.298 729.208 -1.89856 762.586 -7.13739C776.193 -9.27307 807.356 -6.71094 824.436 -2.05072L828.473 -0.949951L828.83 38.1418L829.187 77.2322L816.718 73.9003C799.671 69.3437 774.406 68.2429 760.066 71.4335C729.181 78.3047 708.094 101.43 697.999 139.499C690.492 167.814 690.122 173.005 689.54 258.244L689.001 337.305H649.397H609.794V168.418V-0.469421H646.129H682.463V28.6195V57.7086L687.775 47.1231ZM868.172 72.1992V35.8649V-0.469421H931.421H994.669V168.418V337.305H954.971H915.272V204.752V72.1992H891.722H868.172ZM169.557 257.165C191.571 246.756 207.798 227.309 214.691 203.07L216.7 196.005L157.898 196.18C125.556 196.276 94.5641 196.878 89.0252 197.52C58.5905 201.043 42.7729 215.891 47.2353 236.745C51.8726 258.414 72.9398 268.674 112.796 268.674C135.224 268.674 152.722 265.126 169.557 257.165Z" fill="url(#paint0_linear_273_1307)"/>
<path d="M963.045 -523.806C932.507 -519.406 901.694 -503.935 877.255 -480.735L869.518 -473.389V-495.307V-517.224H832.51H795.503V-351.701V-186.178H835.875H876.246V-273.721C876.246 -371.567 876.23 -371.362 885.604 -391.4C897.975 -417.845 918.051 -435.507 946.896 -445.324C955.754 -448.338 960.764 -449.101 975.16 -449.628C995.688 -450.377 1003.87 -449.001 1017.39 -442.52C1032.86 -435.107 1043.7 -422.532 1050.07 -404.631C1056.74 -385.861 1056.55 -397.063 1056.56 -17.6273L1056.57 337.305H1096.27H1135.97V282.872V228.44L1151.78 214.272L1167.59 200.105L1236.23 268.705L1304.87 337.305H1361.38H1417.89L1321.68 241.087L1225.47 144.869L1298.13 72.1992L1370.79 -0.469421L1317.64 -0.533936L1264.49 -0.600037L1200.26 64.3969L1136.04 129.392L1136 -123.991C1135.98 -295.505 1135.5 -381.567 1134.52 -390.348C1130.34 -427.838 1116.17 -458.96 1092.29 -483.088C1070 -505.6 1045.48 -518.029 1012.91 -523.311C999.761 -525.444 976.043 -525.679 963.045 -523.806Z" fill="url(#paint1_linear_273_1307)"/>
<path fill-rule="evenodd" clip-rule="evenodd" d="M-196.29 -186.178V-418.987V-651.796H-158.609H-120.929V-561.763V-471.732L-112.595 -479.687C-91.2995 -500.015 -61.8714 -514.988 -29.1086 -522.167C-20.6238 -524.026 -12.5509 -524.576 4.89502 -524.486C30.0895 -524.354 42.1027 -522.084 64.0123 -513.311C105.569 -496.67 141.39 -459.116 158.113 -414.655C171.812 -378.237 172.34 -329.676 159.433 -293.334C142.867 -246.688 107.386 -208.805 63.9868 -191.428C42.1041 -182.666 30.0814 -180.394 4.89502 -180.262C-12.5509 -180.172 -20.6238 -180.723 -29.1086 -182.581C-61.9225 -189.771 -90.3198 -204.216 -111.173 -224.325L-120.929 -233.733V-209.956V-186.178H-158.609H-196.29ZM1453.56 -472.407V-562.101V-651.796H1493.26H1532.96V-418.987V-186.178H1493.26H1453.56V-209.26V-232.342L1445.82 -224.973C1424.53 -204.694 1400.87 -191.806 1370.43 -183.904C1357.19 -180.468 1354.04 -180.165 1332.44 -180.258C1311.62 -180.347 1307.4 -180.758 1296 -183.807C1264.31 -192.278 1240.92 -205.503 1218.7 -227.497C1196.46 -249.521 1181.1 -276.889 1172.78 -309.311C1168.11 -327.534 1166.85 -363.358 1170.2 -382.653C1172.78 -397.507 1179.73 -419.139 1185.85 -431.329C1206.41 -472.3 1243.61 -504.778 1284.67 -517.604C1304.12 -523.678 1310.6 -524.596 1333.79 -524.553C1353.25 -524.517 1357.74 -524.071 1370.12 -520.953C1399.93 -513.45 1424.5 -500.084 1445.82 -479.776L1453.56 -472.407ZM285.99 -469.046C300.48 -497.816 325.146 -517.066 355.454 -523.259C371.666 -526.57 395.871 -525.323 421.058 -519.875L428.123 -518.347V-479.433C428.123 -458.03 427.868 -440.519 427.558 -440.519C427.247 -440.519 420.737 -441.985 413.091 -443.779C394.733 -448.084 381.227 -449.118 367.633 -447.257C320.753 -440.837 296.94 -406.773 289.542 -335.553C288.813 -328.521 288.205 -292.036 288.191 -254.473L288.168 -186.178H247.797H207.425V-351.701V-517.224H244.432H281.44L281.444 -488.628L281.448 -460.031L285.99 -469.046ZM475.703 -509.708C493.814 -514.974 523.198 -520.489 547.891 -523.259C579.204 -526.769 615.668 -525.401 641.938 -519.726C699.887 -507.211 735.198 -476.534 748.602 -427.061L751.702 -415.623L752.121 -300.9L752.54 -186.178H716.156H679.772L679.75 -208.719L679.727 -231.26L672.012 -222.907C653.663 -203.044 628.196 -189.259 597.683 -182.671C581.875 -179.257 544.133 -179.22 527.202 -182.599C476.398 -192.739 445.321 -215.834 432.734 -252.805C429.708 -261.693 428.969 -266.589 428.471 -281.051C427.38 -312.763 433.857 -331.066 452.745 -349.65C468.676 -365.323 485.252 -373.365 515.894 -380.284C527.552 -382.916 533.261 -383.139 602.202 -383.643L676.027 -384.184L675.461 -398.558C674.802 -415.348 671.966 -422.817 662.756 -432.032C636.23 -458.575 566.426 -460.73 488.344 -437.415L468.494 -431.489V-469.551V-507.613L475.703 -509.708ZM88.97 -352.374C89.0279 -402.892 51.5874 -445.49 0.933273 -452.534C-11.9991 -454.332 -19.3952 -454.208 -31.6277 -451.989C-43.9545 -449.751 -49.593 -447.892 -60.3722 -442.503C-84.073 -430.658 -101.82 -410.676 -110.541 -386.017C-134.127 -319.314 -84.8319 -250.773 -13.2722 -250.773C43.8441 -250.773 88.9041 -295.551 88.97 -352.374ZM1442.68 -396.894C1429.84 -423.09 1405.7 -442.734 1377.49 -449.948C1340.6 -459.383 1303.02 -449.313 1277.27 -423.093C1257.59 -403.054 1247.73 -379.259 1247.7 -351.701C1247.68 -339.547 1250.96 -323.132 1255.53 -312.472C1263.91 -292.955 1282.44 -272.848 1300.82 -263.327C1319.39 -253.71 1328.88 -251.445 1350.61 -251.445C1372.31 -251.445 1381.75 -253.691 1400.4 -263.292C1415.27 -270.945 1433.09 -288.772 1441.02 -303.928C1449.76 -320.633 1452.78 -333.106 1452.75 -352.374C1452.73 -371.304 1450.58 -380.8 1442.68 -396.894ZM673.812 -308.653C675.609 -313.967 677.08 -318.863 677.08 -319.533C677.08 -321.526 554.414 -320.836 543.083 -318.778C518.389 -314.293 506.028 -301.953 507.916 -283.669C510.28 -260.758 533.611 -248.019 573.046 -248.108C624.768 -248.224 660.664 -269.792 673.812 -308.653ZM388.656 -69.1224C407.264 -104.846 445.882 -131.429 488.122 -137.588C509.551 -140.714 541.927 -138.353 568.003 -131.76C575.504 -129.864 581.921 -128.312 582.261 -128.312C582.602 -128.312 582.88 -110.989 582.88 -89.8154C582.88 -53.6803 582.736 -51.3779 580.525 -52.2875C569.665 -56.7567 554.881 -61.6456 545.9 -63.7396C505.104 -73.2498 472.025 -62.6429 458.817 -35.8134C454.978 -28.0136 454.376 -25.3005 453.909 -13.6964L453.378 -0.469421H499.962H546.546V35.1921V70.8535H500.119H453.691V204.079V337.305H413.993H374.294V204.079V70.8535H351.417H328.54V35.1921V-0.469421H351.417H374.294L374.305 -11.5716C374.324 -32.8958 378.493 -49.6136 388.656 -69.1224ZM913.926 -46.2238V-86.5952V-126.967H954.298H994.669V-86.5952V-46.2238H954.298H913.926ZM24.0715 5.21893C51.6169 -1.56616 66.1493 -3.87274 105.824 -7.7605C116.089 -8.76575 152.991 -7.18182 166.367 -5.16058C227.44 4.06567 267.813 32.4454 283.367 77.0842C284.916 81.5314 286.163 84.9778 287.171 88.4928C291.492 103.569 291.403 119.909 291.845 221.91L292.344 337.305H255.267H218.191V312.152V286.998L209.673 295.772C193.013 312.932 169.619 326.241 144.549 332.821C126.719 337.503 92.4029 338.721 71.434 335.416C16.5839 326.774 -19.3615 299.406 -30.3681 257.908C-33.5898 245.76 -33.5656 217.425 -30.3238 205.425C-21.2186 171.723 3.66098 149.902 44.7551 139.578C68.4814 133.618 81.9951 132.756 151.827 132.756H215.891L215.142 119.167C214.502 107.548 213.782 104.338 210.18 97.0196C205.325 87.1569 198.307 80.5576 186.567 74.8181C172.061 67.7248 159.475 65.2822 133.35 64.491C92.7892 63.2637 71.7906 66.7813 9.26859 85.2741C7.0643 85.9255 6.91359 83.5167 6.91359 47.7086V9.44586L24.0715 5.21893ZM687.775 47.1231C702.74 17.298 729.208 -1.89856 762.586 -7.13739C776.193 -9.27307 807.356 -6.71094 824.436 -2.05072L828.473 -0.949951L828.83 38.1418L829.187 77.2322L816.718 73.9003C799.671 69.3437 774.406 68.2429 760.066 71.4335C729.181 78.3047 708.094 101.43 697.999 139.499C690.492 167.814 690.122 173.005 689.54 258.244L689.001 337.305H649.397H609.794V168.418V-0.469421H646.129H682.463V28.6195V57.7086L687.775 47.1231ZM868.172 72.1992V35.8649V-0.469421H931.421H994.669V168.418V337.305H954.971H915.272V204.752V72.1992H891.722H868.172ZM169.557 257.165C191.571 246.756 207.798 227.309 214.691 203.07L216.7 196.005L157.898 196.18C125.556 196.276 94.5641 196.878 89.0252 197.52C58.5905 201.043 42.7729 215.891 47.2353 236.745C51.8726 258.414 72.9398 268.674 112.796 268.674C135.224 268.674 152.722 265.126 169.557 257.165Z" stroke="white" stroke-opacity="0.04" stroke-width="2" mask="url(#path-1-inside-1_273_1307)"/>
<path d="M963.045 -523.806C932.507 -519.406 901.694 -503.935 877.255 -480.735L869.518 -473.389V-495.307V-517.224H832.51H795.503V-351.701V-186.178H835.875H876.246V-273.721C876.246 -371.567 876.23 -371.362 885.604 -391.4C897.975 -417.845 918.051 -435.507 946.896 -445.324C955.754 -448.338 960.764 -449.101 975.16 -449.628C995.688 -450.377 1003.87 -449.001 1017.39 -442.52C1032.86 -435.107 1043.7 -422.532 1050.07 -404.631C1056.74 -385.861 1056.55 -397.063 1056.56 -17.6273L1056.57 337.305H1096.27H1135.97V282.872V228.44L1151.78 214.272L1167.59 200.105L1236.23 268.705L1304.87 337.305H1361.38H1417.89L1321.68 241.087L1225.47 144.869L1298.13 72.1992L1370.79 -0.469421L1317.64 -0.533936L1264.49 -0.600037L1200.26 64.3969L1136.04 129.392L1136 -123.991C1135.98 -295.505 1135.5 -381.567 1134.52 -390.348C1130.34 -427.838 1116.17 -458.96 1092.29 -483.088C1070 -505.6 1045.48 -518.029 1012.91 -523.311C999.761 -525.444 976.043 -525.679 963.045 -523.806Z" stroke="white" stroke-opacity="0.04" stroke-width="2" mask="url(#path-1-inside-1_273_1307)"/>
<defs>
<linearGradient id="paint0_linear_273_1307" x1="668.333" y1="-366.258" x2="668.333" y2="337.305" gradientUnits="userSpaceOnUse">
<stop stop-color="#1A1A1A" stop-opacity="0"/>
<stop offset="1" stop-color="#1A1A1A"/>
</linearGradient>
<linearGradient id="paint1_linear_273_1307" x1="668.333" y1="-366.258" x2="668.333" y2="337.305" gradientUnits="userSpaceOnUse">
<stop stop-color="#1A1A1A" stop-opacity="0"/>
<stop offset="1" stop-color="#1A1A1A"/>
</linearGradient>
</defs>
</svg>
