<svg xmlns="http://www.w3.org/2000/svg" xmlns:xlink="http://www.w3.org/1999/xlink" viewBox="0 0 87.312 32" overflow="visible"><path d="M 24.05 9.3 L 8.838 16.007 L 24.041 23.135 L 24.041 31.991 L 0 20.62 L 0 11.472 L 24.034 0.008 L 24.05 9.298 Z M 63.285 9.3 L 78.491 16.007 L 63.295 23.136 L 63.295 31.991 L 87.312 20.621 L 87.312 11.471 L 63.295 0 L 63.285 9.299 Z M 43.636 0.002 C 34.8 0.004 27.638 7.169 27.642 16.005 C 27.643 24.842 34.809 32.004 43.645 32 C 52.481 31.998 59.643 24.833 59.64 15.997 C 59.638 7.159 52.473 -0.002 43.638 0.002 Z M 43.636 24.322 C 39.041 24.322 35.316 20.597 35.316 16.002 C 35.316 11.407 39.041 7.682 43.636 7.682 C 48.231 7.682 51.956 11.407 51.956 16.002 C 51.955 20.595 48.231 24.318 43.638 24.317 L 43.638 24.324 Z" fill="rgb(105,105,105)"></path></svg>