<svg width="80" height="80" viewBox="0 0 80 80" fill="none" id="svg-303217533_1488" xmlns="http://www.w3.org/2000/svg"> 
<path d="M55.3199 3.4567L76.4766 24.61C76.6946 24.8277 76.848 25.1015 76.9198 25.401C76.9916 25.7006 76.979 26.0142 76.8834 26.307C76.7877 26.5999 76.6128 26.8604 76.378 27.0599C76.1432 27.2593 75.8577 27.3897 75.5533 27.4367L70.6399 28.2034L51.7866 9.3467L52.4933 4.3967C52.5377 4.09088 52.6663 3.80343 52.8647 3.56648C53.0631 3.32953 53.3234 3.1524 53.6167 3.05488C53.9099 2.95736 54.2245 2.9433 54.5253 3.01425C54.8261 3.08521 55.1012 3.2384 55.3199 3.4567ZM15.3166 67.1567C27.7233 56.0567 41.9666 52.7334 57.4599 48.7567L58.9466 35.3667L44.6233 21.04L31.2299 22.53C27.2566 38.0234 23.9333 52.2634 12.8299 64.6734L8.17993 60.0234C17.6099 49.0234 21.1466 36.8467 25.8566 16.42L47.0699 14.06L65.9266 32.9167L63.5699 54.13C43.1433 58.8467 30.9633 62.38 19.9666 71.81L15.3166 67.1567ZM32.9299 47.06C32.2932 46.4451 31.7853 45.7094 31.4359 44.8961C31.0865 44.0827 30.9026 43.2079 30.8949 42.3227C30.8872 41.4375 31.0559 40.5597 31.3911 39.7403C31.7263 38.921 32.2213 38.1767 32.8473 37.5507C33.4732 36.9248 34.2176 36.4298 35.0369 36.0946C35.8562 35.7594 36.7341 35.5907 37.6193 35.5984C38.5045 35.6061 39.3793 35.79 40.1926 36.1394C41.006 36.4888 41.7416 36.9966 42.3566 37.6334C43.571 38.8907 44.2429 40.5747 44.2278 42.3227C44.2126 44.0707 43.5114 45.7428 42.2754 46.9788C41.0393 48.2149 39.3673 48.916 37.6193 48.9312C35.8713 48.9464 34.1873 48.2744 32.9299 47.06Z" fill="#F2B401"></path>
</svg>