<svg width="420" height="420" viewBox="0 0 420 420" fill="none" xmlns="http://www.w3.org/2000/svg">
<path fill-rule="evenodd" clip-rule="evenodd" d="M390 0C406.569 5.79834e-06 420 13.4315 420 30V390C420 406.569 406.569 420 390 420H30C13.4315 420 7.24837e-07 406.569 0 390V30C5.79869e-06 13.4315 13.4315 7.24793e-07 30 0H390ZM60 45C51.7157 45 45 51.7157 45 60V360C45 368.284 51.7157 375 60 375H360C368.284 375 375 368.284 375 360V60C375 51.7157 368.284 45 360 45H60Z" fill="black"/>
<path d="M318 296H266V154H124V103H318V296Z" fill="black"/>
<path d="M103 276.107L276.107 103L317.874 144.767L144.767 317.874L103 276.107Z" fill="black"/>
</svg>
