<svg xmlns="http://www.w3.org/2000/svg" xmlns:xlink="http://www.w3.org/1999/xlink" viewBox="0 0 200 134.121" overflow="visible"><path d="M 0 0 L 8.583 0 L 8.583 19.814 L 9.63 18.857 C 11.08 17.531 12.058 16.889 14.095 15.924 C 16.863 14.613 18.975 14.137 22.109 14.12 C 25.26 14.102 27.144 14.503 29.78 15.752 C 31.908 16.76 32.884 17.424 34.565 19.008 C 37.768 22.028 39.858 26.041 40.495 30.397 C 40.795 32.45 40.622 36.199 40.137 38.154 C 38.422 45.066 33.146 50.403 26.358 52.092 C 23.9 52.703 20.18 52.659 17.631 51.987 C 14.549 51.174 11.578 49.595 9.562 47.697 L 8.583 46.775 L 8.583 51.68 L 0 51.68 Z M 183.585 0 L 192.54 0 L 192.54 51.68 L 183.585 51.68 L 183.585 46.789 L 182.497 47.796 C 180.548 49.601 178.272 50.909 175.631 51.742 C 163.762 55.484 151.868 46.254 151.868 33.303 C 151.868 27.745 153.998 22.762 157.979 19.006 C 159.655 17.426 160.632 16.761 162.757 15.754 C 169.3 12.654 177.163 13.872 182.497 18.81 L 183.585 19.816 Z M 61.34 14.28 C 62.849 13.94 65.56 14.019 67.959 14.472 L 69.591 14.78 L 69.591 19.144 C 69.591 21.544 69.521 23.508 69.434 23.508 C 69.349 23.508 68.614 23.337 67.802 23.129 C 66.083 22.687 63.104 22.605 61.662 22.961 C 58.595 23.715 56.378 26.002 55.225 29.602 C 54.16 32.93 54.06 34.003 53.968 43.238 L 53.884 51.68 L 44.964 51.68 L 44.964 14.926 L 53.359 14.926 L 53.359 20.781 L 54.023 19.679 C 55.82 16.694 58.106 15.008 61.339 14.28 Z M 96.49 15.563 C 98.797 16.427 100.061 17.233 101.786 18.939 C 102.985 20.125 103.458 20.762 104.073 22.017 C 105.667 25.273 105.771 26.402 105.779 40.626 L 105.785 51.68 L 97.39 51.68 L 97.39 47.109 L 96.109 48.322 C 92.768 51.486 87.708 53.014 82.403 52.461 C 77.704 51.972 73.986 50.276 71.756 47.606 C 68.998 44.305 68.689 38.616 71.067 34.937 C 72.846 32.183 76.628 30.383 81.732 29.858 C 82.772 29.752 86.691 29.664 90.44 29.664 L 97.258 29.664 L 97.139 28.257 C 96.866 25.022 95.282 23.389 91.513 22.454 C 90.516 22.206 89.455 22.133 87.035 22.142 C 83.415 22.156 81.113 22.499 77.147 23.615 C 75.813 23.99 74.531 24.34 74.298 24.391 L 73.875 24.485 L 73.925 20.231 L 73.975 15.975 L 75.281 15.637 C 77.363 15.098 81.47 14.371 83.397 14.201 C 88.437 13.755 92.903 14.22 96.49 15.563 Z M 144.552 19.892 C 145.849 21.506 147.056 23.988 147.717 26.399 L 148.228 28.266 L 148.416 86.812 L 162.457 72.576 L 174.536 72.576 L 166.467 80.645 L 158.398 88.713 L 169.079 99.395 L 179.759 110.077 L 167.075 110.077 L 159.48 102.483 C 152.432 95.436 151.862 94.91 151.55 95.171 C 150.953 95.685 150.36 96.202 149.769 96.723 L 148.323 97.995 L 148.323 110.077 L 139.368 110.077 L 139.368 70.083 C 139.368 46.113 139.298 29.721 139.194 29.171 C 138.217 24.022 134.269 21.595 128.61 22.665 C 126.817 23.004 124.515 24.111 123.208 25.264 C 121.935 26.386 120.632 28.332 120.008 30.042 L 119.498 31.437 L 119.444 41.558 L 119.39 51.68 L 110.45 51.68 L 110.45 14.926 L 118.658 14.926 L 118.658 19.816 L 119.79 18.769 C 122.548 16.216 125.631 14.726 129.258 14.194 C 135.068 13.342 141.093 15.586 144.552 19.892 Z M 18.751 22.133 C 13.113 23.004 8.948 27.751 8.958 33.295 C 8.964 36.465 10.021 38.986 12.292 41.247 C 14.736 43.68 17.569 44.742 21.066 44.536 C 26.079 44.241 30.178 40.905 31.429 36.102 C 31.801 34.673 31.797 31.99 31.421 30.531 C 30.486 26.907 27.638 23.892 23.99 22.667 C 22.608 22.204 20.009 21.939 18.751 22.133 Z M 170.619 22.133 C 166.901 22.708 163.519 25.152 161.979 28.378 C 161.089 30.24 160.823 31.401 160.823 33.425 C 160.823 36.461 161.915 39.017 164.16 41.238 C 164.993 42.062 166.059 42.894 166.735 43.249 C 169.232 44.556 172.348 44.92 175.078 44.222 C 180.077 42.944 183.585 38.491 183.585 33.425 C 183.585 31.418 183.32 30.24 182.464 28.452 C 181.158 25.72 178.8 23.655 175.857 22.667 C 174.476 22.204 171.877 21.939 170.619 22.133 Z M 97.114 37.361 L 97.233 36.754 L 90.921 36.779 C 82.558 36.812 81.08 36.991 79.555 38.154 C 78.748 38.77 78.276 40.023 78.44 41.117 C 78.804 43.545 81.297 44.835 85.636 44.842 C 90.898 44.849 94.596 42.954 96.321 39.367 C 96.691 38.597 97.048 37.695 97.114 37.361 Z M 82.278 57.28 C 82.945 57.383 84.225 57.643 85.123 57.859 L 86.755 58.252 L 86.755 62.522 C 86.755 64.87 86.714 66.792 86.664 66.792 C 86.614 66.792 86.047 66.586 85.405 66.335 C 82.935 65.368 82.114 65.209 79.572 65.208 C 77.287 65.206 77.079 65.238 75.973 65.748 C 73.679 66.808 72.39 68.836 72.39 71.385 L 72.39 72.576 L 82.837 72.576 L 82.837 80.411 L 72.39 80.411 L 72.39 110.077 L 63.434 110.077 L 63.434 80.411 L 58.397 80.411 L 58.397 72.576 L 63.381 72.576 L 63.508 70.726 C 63.733 67.454 64.696 64.916 66.606 62.555 C 68.71 59.954 71.681 58.179 75.281 57.371 C 76.62 57.071 80.583 57.019 82.278 57.28 Z M 123.696 58.397 L 132.651 58.397 L 132.651 67.352 L 123.696 67.352 Z M 39.646 71.849 C 42.293 72.172 44.701 72.856 46.736 73.864 C 49.686 75.325 51.482 77.069 52.807 79.758 C 54.247 82.682 54.182 81.911 54.248 96.876 L 54.306 110.263 L 46.083 110.263 L 46.083 104.627 L 44.62 105.999 C 42.905 107.608 40.956 108.707 38.527 109.437 C 37.097 109.866 36.404 109.954 33.863 110.029 C 30.543 110.127 28.65 109.877 26.249 109.023 C 20.739 107.066 17.822 102.913 18.173 97.53 C 18.429 93.622 20.243 90.908 23.752 89.183 C 27.013 87.581 29.126 87.315 38.595 87.315 L 45.95 87.315 L 45.825 85.966 C 45.649 84.068 45.378 83.31 44.539 82.357 C 43.025 80.637 40.877 79.892 36.939 79.722 C 33.135 79.558 29.618 80.063 24.975 81.438 C 23.762 81.797 22.727 82.091 22.673 82.091 C 22.619 82.091 22.575 80.175 22.575 77.834 L 22.575 73.579 L 25.047 72.995 C 27.241 72.478 30.189 71.964 32.09 71.769 C 33.62 71.613 38.097 71.66 39.646 71.849 Z M 112.828 72.106 L 114.181 72.419 L 114.181 76.801 C 114.181 80.888 114.159 81.177 113.855 81.084 C 110.144 79.949 106.84 80.017 104.344 81.281 C 102.305 82.313 100.452 84.921 99.632 87.914 C 98.784 91.008 98.66 92.592 98.56 101.541 L 98.465 110.077 L 89.74 110.077 L 89.74 72.576 L 97.949 72.576 L 97.949 78.602 L 98.435 77.687 C 100.119 74.516 102.907 72.427 106.345 71.76 C 107.289 71.576 111.515 71.802 112.828 72.106 Z M 118.472 72.576 L 132.651 72.576 L 132.651 110.076 L 123.696 110.076 L 123.696 80.598 L 118.472 80.598 Z M 45.896 94.562 C 45.896 94.354 32.469 94.401 31.191 94.613 C 28.261 95.101 26.742 96.684 27.141 98.836 C 27.416 100.32 28.423 101.288 30.411 101.978 C 31.255 102.27 31.968 102.334 34.422 102.334 C 37.649 102.334 39.005 102.062 41.119 100.991 C 42.249 100.418 43.827 98.952 44.584 97.772 C 45.08 97.001 45.897 95.002 45.897 94.562 Z M 96.457 120.581 C 98.302 120.636 99.651 121.069 100.726 121.955 L 101.17 122.321 L 100.548 123.26 L 99.927 124.199 L 99.101 123.676 C 97.209 122.476 94.983 122.539 93.47 123.833 C 92.41 124.742 91.989 125.714 91.983 127.266 C 91.978 128.921 92.645 130.254 93.903 131.102 C 95.51 132.183 97.331 132.103 99.207 130.868 L 100.184 130.225 L 100.828 131.111 L 101.471 131.998 L 101.069 132.426 C 100.849 132.661 100.121 133.123 99.452 133.452 C 98.308 134.016 98.118 134.051 96.181 134.051 C 94.313 134.051 94.028 134.003 93.075 133.536 C 91.838 132.927 90.437 131.501 89.867 130.266 C 89.278 128.99 89.275 125.682 89.864 124.409 C 90.614 122.787 92.244 121.324 93.905 120.783 C 94.401 120.621 95.331 120.548 96.457 120.581 Z M 195.835 120.524 C 197.327 120.524 198.973 121.021 199.533 121.64 C 199.847 121.987 199.839 122.039 199.345 122.896 C 199.061 123.387 198.81 123.814 198.787 123.843 C 198.763 123.873 198.348 123.686 197.863 123.428 C 196.712 122.816 195.891 122.675 195.068 122.946 C 194.245 123.219 193.764 124.016 194.02 124.688 C 194.22 125.214 194.932 125.67 196.69 126.4 C 198.075 126.975 199.304 127.922 199.728 128.743 C 200.128 129.516 200.079 131.21 199.632 132.088 C 198.874 133.574 197.403 134.236 195.149 134.105 C 193.641 134.018 192.013 133.408 191.36 132.686 C 191.072 132.368 191.094 132.287 191.72 131.394 L 192.386 130.442 L 193.254 130.991 C 194.925 132.051 196.472 132.14 197.197 131.22 C 198.036 130.153 197.51 129.507 194.641 128.078 C 192.008 126.767 191.552 126.25 191.459 124.463 C 191.401 123.356 191.451 123.142 191.946 122.37 C 192.338 121.76 192.784 121.369 193.489 121.018 C 194.287 120.62 194.743 120.524 195.835 120.524 Z M 105.599 120.711 L 108.631 120.712 C 110.298 120.713 111.959 120.795 112.322 120.896 C 113.07 121.104 114.248 122.224 114.543 123.008 C 114.652 123.297 114.741 124.09 114.741 124.768 C 114.741 126.267 114.241 127.433 113.334 128.049 L 112.714 128.471 L 114.193 131.123 C 115.008 132.583 115.674 133.817 115.674 133.867 C 115.674 133.916 115.049 133.957 114.286 133.957 L 112.898 133.957 L 111.562 131.532 L 110.226 129.107 L 108.024 129.107 L 108.024 133.957 L 105.599 133.957 Z M 119.592 120.711 L 127.614 120.711 L 127.614 122.763 L 122.017 122.763 L 122.017 126.308 L 126.495 126.308 L 126.495 128.36 L 122.017 128.36 L 122.017 131.905 L 127.801 131.905 L 127.801 133.957 L 119.592 133.957 Z M 135.151 120.711 L 137.84 120.711 L 138.117 121.504 C 139.623 125.81 142.175 133.037 142.332 133.444 L 142.53 133.957 L 139.811 133.957 L 139.273 132.273 L 138.734 130.588 L 136.501 130.64 L 134.268 130.692 L 133.724 132.325 L 133.18 133.957 L 131.89 133.957 C 131.18 133.957 130.599 133.895 130.599 133.819 C 130.599 133.742 131.623 130.762 132.875 127.195 Z M 143.473 120.711 L 154.667 120.711 L 154.667 122.763 L 150.375 122.763 L 150.375 133.957 L 147.95 133.957 L 147.95 122.763 L 143.473 122.763 Z M 158.211 120.711 L 160.637 120.711 L 160.637 133.957 L 158.211 133.957 Z M 165.534 120.749 L 166.887 120.804 L 168.453 125.562 C 169.314 128.178 170.062 130.445 170.114 130.599 C 170.186 130.81 170.228 130.787 170.285 130.506 C 170.4 129.929 173.318 121.209 173.487 120.936 C 173.592 120.766 174.021 120.71 174.931 120.749 L 176.226 120.804 L 173.863 127.334 L 171.502 133.864 L 170.202 133.918 L 168.903 133.973 L 166.542 127.481 C 165.244 123.911 164.181 120.924 164.181 120.843 C 164.181 120.761 164.791 120.719 165.534 120.749 Z M 179.667 120.711 L 187.69 120.711 L 187.69 122.763 L 182.092 122.763 L 182.092 126.308 L 186.57 126.308 L 186.57 128.36 L 182.092 128.36 L 182.092 131.905 L 187.876 131.905 L 187.876 133.957 L 179.667 133.957 Z M 109.493 122.81 L 108.024 122.71 L 108.024 127.054 L 109.027 127.054 C 111.06 127.054 111.972 126.548 112.209 125.286 C 112.357 124.498 111.946 123.438 111.374 123.132 C 111.148 123.01 110.301 122.866 109.493 122.81 Z M 136.599 123.835 C 136.518 123.619 136.23 124.285 135.754 125.794 C 135.356 127.051 134.992 128.185 134.945 128.314 C 134.88 128.489 135.262 128.547 136.48 128.547 C 137.808 128.547 138.084 128.498 137.999 128.28 C 137.944 128.134 137.633 127.148 137.31 126.089 C 136.986 125.029 136.667 124.015 136.599 123.835 Z" fill="rgb(53,53,53)"></path></svg>