<svg xmlns="http://www.w3.org/2000/svg" xmlns:xlink="http://www.w3.org/1999/xlink" viewBox="0 0 200.017 111.379" overflow="visible"><g><path d="M 44.177 16.767 C 45.301 14.369 47.473 12.517 50.036 11.768 C 51.64 11.301 54.905 11.389 57.098 11.96 L 57.689 12.114 L 57.689 19.502 L 56.545 19.194 C 53.945 18.492 50.909 18.678 49.131 19.648 C 47.53 20.522 45.989 22.715 45.326 25.068 C 44.62 27.569 44.559 28.366 44.481 36.017 L 44.405 43.408 L 36.86 43.408 L 36.86 12.102 L 43.803 12.102 L 43.805 14.83 L 43.807 17.557 Z M 98.417 15.639 C 100.552 13.603 102.911 12.308 105.557 11.722 C 107.222 11.352 111.307 11.471 112.894 11.935 C 117.278 13.216 120.438 16.26 121.882 20.592 C 122.857 23.515 122.833 22.801 122.838 49.1 L 122.843 73.054 L 128.848 67.006 L 134.852 60.958 L 139.81 60.958 C 142.537 60.958 144.768 61.012 144.768 61.078 C 144.768 61.143 141.75 64.22 138.062 67.915 L 131.355 74.634 L 140.35 83.647 C 145.297 88.605 149.344 92.715 149.344 92.779 C 149.344 92.844 146.984 92.897 144.098 92.897 L 138.852 92.897 L 132.356 86.39 L 125.86 79.881 L 125.373 80.292 C 125.106 80.518 124.425 81.111 123.861 81.61 L 122.835 82.518 L 122.835 92.897 L 115.265 92.897 L 115.221 58.468 C 115.174 20.65 115.255 23.762 114.264 21.802 C 113.039 19.381 110.17 18.135 106.863 18.589 C 102.718 19.158 99.536 21.982 98.61 25.915 C 98.427 26.695 98.381 28.497 98.38 35.146 L 98.378 43.407 L 90.803 43.407 L 90.803 12.101 L 97.746 12.101 L 97.746 16.278 Z M 53.352 53.925 C 55.012 50.42 58.429 47.886 62.521 47.124 C 64.692 46.718 67.821 46.898 70.49 47.582 L 71.831 47.925 L 71.873 51.576 L 71.916 55.227 L 70.463 54.68 C 66.424 53.159 63.159 53.417 61.169 55.413 C 60.122 56.464 59.76 57.367 59.76 58.933 L 59.76 60.012 L 68.596 60.012 L 68.596 66.653 L 59.76 66.653 L 59.76 91.951 L 52.186 91.951 L 52.186 66.653 L 47.926 66.653 L 47.926 60.012 L 52.139 60.012 L 52.236 58.47 C 52.353 56.618 52.65 55.404 53.351 53.925 Z" fill="rgb(255,255,255)"></path><path d="M 101.695 55.644 L 101.695 48.055 L 109.427 48.055 L 109.427 55.644 Z M 81.234 64.11 C 82.667 61.394 85.009 59.715 88.242 59.085 C 88.942 58.949 91.753 59.125 93.173 59.393 L 94.554 59.654 L 94.554 63.353 C 94.554 65.387 94.524 67.051 94.487 67.051 C 94.451 67.051 93.796 66.902 93.032 66.721 C 92.101 66.499 91.12 66.39 90.061 66.391 C 85.253 66.394 82.73 69.11 81.667 75.431 C 81.469 76.606 81.398 78.546 81.341 84.325 L 81.268 91.717 L 73.725 91.717 L 73.725 59.778 L 80.826 59.778 L 80.826 64.885 Z M 97.546 66.557 L 97.546 59.759 L 109.538 59.759 L 109.538 91.698 L 101.964 91.698 L 101.964 66.557 Z M 186.208 105.335 C 187.279 102.011 188.191 99.197 188.236 99.082 C 188.288 98.944 188.614 98.874 189.201 98.874 C 190.085 98.874 190.086 98.874 189.989 99.309 C 189.936 99.548 189.048 102.34 188.016 105.514 L 186.139 111.286 L 185.2 111.333 L 184.261 111.379 Z M 175.144 100.901 C 175.476 100.383 175.853 100.052 176.449 99.755 C 177.124 99.417 177.51 99.336 178.434 99.336 C 179.695 99.336 181.088 99.757 181.562 100.282 C 181.827 100.575 181.82 100.619 181.403 101.345 C 181.249 101.616 181.092 101.883 180.93 102.149 C 180.911 102.174 180.559 102.016 180.149 101.797 C 179.175 101.279 178.481 101.159 177.785 101.389 C 177.089 101.619 176.683 102.295 176.899 102.865 C 177.068 103.31 177.67 103.697 179.156 104.316 C 180.328 104.803 181.368 105.606 181.727 106.301 C 182.065 106.957 182.024 108.392 181.645 109.136 C 181.004 110.395 179.76 110.956 177.853 110.845 C 176.578 110.771 175.201 110.255 174.649 109.643 C 174.405 109.374 174.424 109.305 174.953 108.548 L 175.517 107.74 L 176.25 108.206 C 177.664 109.105 178.973 109.181 179.585 108.4 C 180.295 107.496 179.85 106.948 177.424 105.738 C 175.197 104.627 174.812 104.188 174.733 102.674 C 174.683 101.736 174.726 101.554 175.144 100.901 Z M 86.789 110.716 L 86.789 99.49 L 93.573 99.49 L 93.573 101.229 L 88.839 101.229 L 88.839 104.233 L 92.626 104.233 L 92.626 105.972 L 88.839 105.972 L 88.839 108.976 L 93.731 108.976 L 93.731 110.716 Z M 97.698 105.227 C 96.6 102.202 95.702 99.67 95.702 99.601 C 95.702 99.532 96.217 99.497 96.846 99.522 L 97.99 99.568 L 99.315 103.6 C 100.043 105.818 100.675 107.739 100.72 107.869 C 100.78 108.048 100.816 108.028 100.863 107.79 C 100.961 107.302 103.429 99.911 103.572 99.679 C 103.66 99.535 104.024 99.488 104.793 99.521 L 105.888 99.568 L 103.89 105.102 L 101.893 110.636 L 100.794 110.682 L 99.695 110.728 Z M 108.458 110.716 L 108.458 99.49 L 115.243 99.49 L 115.243 101.229 L 110.509 101.229 L 110.509 104.233 L 114.296 104.233 L 114.296 105.972 L 110.509 105.972 L 110.509 108.976 L 115.4 108.976 L 115.4 110.716 Z M 118.754 110.716 L 118.754 99.49 L 120.806 99.49 L 120.806 108.976 L 125.697 108.976 L 125.697 110.716 Z M 153.333 110.716 L 153.333 99.49 L 160.118 99.49 L 160.118 101.229 L 155.384 101.229 L 155.384 104.233 L 159.172 104.233 L 159.172 105.972 L 155.384 105.972 L 155.384 108.976 L 160.276 108.976 L 160.276 110.716 Z M 62.799 105.484 L 66.554 103.805 C 68.62 102.881 70.362 102.121 70.427 102.116 C 70.493 102.111 70.546 102.527 70.546 103.039 L 70.546 103.97 L 68.849 104.652 C 67.917 105.028 66.71 105.521 66.169 105.75 L 65.184 106.165 L 67.863 107.259 L 70.542 108.353 L 70.544 109.262 C 70.545 109.762 70.49 110.171 70.421 110.171 C 70.353 110.171 68.631 109.428 66.595 108.519 L 62.893 106.868 L 62.846 106.176 Z M 192.523 103.966 L 192.523 103.037 C 192.523 102.526 192.549 102.108 192.581 102.108 C 192.614 102.108 194.3 102.847 196.329 103.75 L 200.017 105.392 L 200.017 106.918 L 196.389 108.542 C 194.392 109.434 192.706 110.166 192.641 110.168 C 192.576 110.17 192.523 109.76 192.523 109.256 L 192.523 108.341 L 195.008 107.334 C 196.375 106.781 197.549 106.279 197.618 106.219 C 197.687 106.159 196.569 105.628 195.133 105.038 Z" fill="rgb(255,255,255)"></path><path d="M 0 0.001 L 7.101 0.001 L 7.101 16.965 L 7.929 16.182 C 9.65 14.556 11.836 13.342 14.454 12.557 C 15.587 12.218 16.29 12.122 18.089 12.058 C 20.466 11.973 21.676 12.112 23.367 12.664 C 31.87 15.437 36.418 24.897 33.497 33.733 C 32.155 37.792 29.26 41.143 25.483 43.007 C 23.484 43.994 21.843 44.424 19.633 44.541 C 15.323 44.768 11.409 43.405 8.087 40.517 L 7.101 39.661 L 7.101 43.955 L 0 43.955 Z M 24.637 33.654 C 28.511 28.49 26.515 21.294 20.553 18.93 C 19.416 18.48 19.096 18.425 17.319 18.379 C 15.921 18.343 15.094 18.397 14.478 18.564 C 11.823 19.287 9.478 21.199 8.359 23.554 C 7.585 25.185 7.337 26.217 7.337 27.812 C 7.337 30.38 8.313 32.73 10.123 34.52 C 12.035 36.412 14.252 37.311 17.003 37.311 C 20.128 37.311 22.885 35.991 24.637 33.654 Z M 76.183 11.938 C 81.455 12.805 84.808 14.955 86.538 18.582 C 86.802 19.136 87.005 19.537 87.163 19.957 C 87.722 21.446 87.699 23.157 87.743 32.693 L 87.793 43.643 L 80.838 43.643 L 80.838 39.539 L 80.169 40.266 C 78.757 41.801 76.322 43.195 73.974 43.812 C 72.144 44.292 69.05 44.398 66.974 44.05 C 62.085 43.231 58.937 40.986 57.669 37.414 C 57.108 35.832 57.078 33.037 57.605 31.356 C 58.555 28.331 61.092 26.335 65.216 25.369 C 66.225 25.133 67.439 25.082 73.461 25.028 L 80.522 24.965 L 80.522 23.818 C 80.522 23.187 80.41 22.34 80.273 21.936 C 79.744 20.383 77.965 19.193 75.456 18.717 C 73.477 18.341 69.099 18.499 66.558 19.038 C 64.922 19.385 62.103 20.152 61.232 20.486 C 60.974 20.586 60.956 20.354 60.956 16.945 L 60.956 13.297 L 61.548 13.139 C 63.085 12.727 65.156 12.302 66.952 12.03 C 69.473 11.65 74.139 11.603 76.183 11.938 Z M 79.762 32.517 C 80.056 31.882 80.34 31.166 80.393 30.927 L 80.49 30.492 L 74.451 30.509 C 71.13 30.519 68.097 30.589 67.71 30.665 C 65.447 31.109 64.27 32.52 64.617 34.371 C 64.759 35.135 65.772 36.22 66.72 36.625 C 68.418 37.351 71.88 37.479 74.094 36.897 C 76.782 36.191 78.778 34.649 79.762 32.517 Z M 151.923 0 L 159.497 0 L 159.497 43.957 L 151.923 43.957 L 151.923 39.651 L 150.906 40.604 C 148.021 43.308 144.111 44.722 140.01 44.543 C 137.633 44.44 136.081 44.044 133.981 43.007 C 129.417 40.753 126.316 36.597 125.337 31.426 C 125.031 29.81 125.031 26.796 125.337 25.18 C 126.508 18.998 130.828 14.166 136.712 12.458 C 137.807 12.14 138.295 12.098 140.72 12.106 C 143.257 12.114 143.594 12.149 144.867 12.541 C 147.203 13.26 149.009 14.279 151.016 16.01 L 151.923 16.792 Z M 151.722 27.812 C 151.722 23.885 149.334 20.39 145.652 18.931 C 144.515 18.48 144.194 18.425 142.417 18.379 C 141.019 18.343 140.192 18.397 139.577 18.564 C 135.347 19.716 132.435 23.487 132.435 27.812 C 132.435 32.176 135.391 35.964 139.656 37.067 C 140.891 37.386 143.331 37.383 144.548 37.06 C 148.808 35.932 151.722 32.175 151.722 27.812 Z M 30.607 59.221 C 39.05 59.445 44.083 62.87 45.294 69.211 C 45.475 70.157 45.519 72.492 45.519 81.125 L 45.519 91.863 L 38.576 91.863 L 38.576 87.122 L 37.623 88.062 C 35.934 89.728 33.7 90.906 31.099 91.501 C 29.503 91.866 25.818 91.862 24.079 91.493 C 22.33 91.123 20.495 90.439 19.285 89.709 C 15.91 87.671 14.278 83.718 15.136 79.663 C 15.753 76.743 17.574 74.773 20.768 73.569 C 23.267 72.626 24.064 72.544 31.534 72.461 L 38.298 72.386 L 38.232 71.006 C 38.154 69.357 37.728 68.477 36.584 67.602 C 35.093 66.462 33.196 66.026 29.74 66.03 C 26.836 66.034 24.36 66.418 21.121 67.367 C 19.955 67.709 18.931 67.988 18.845 67.988 C 18.745 67.988 18.704 66.691 18.731 64.396 L 18.773 60.803 L 20.556 60.372 C 22.595 59.879 24.802 59.494 26.742 59.292 C 27.479 59.216 29.219 59.184 30.607 59.221 Z M 32.671 84.162 C 35.508 83.221 37.451 81.152 38.123 78.358 L 38.227 77.923 L 32.82 77.944 C 25.778 77.971 24.593 78.118 23.264 79.133 C 21.974 80.119 21.969 82.227 23.255 83.4 C 24.912 84.911 29.334 85.269 32.671 84.162 Z M 73.922 99.607 L 76.801 99.672 C 79.312 99.728 79.776 99.779 80.418 100.071 C 82.664 101.092 83.826 103.53 83.394 106.319 C 83.066 108.433 81.892 109.908 80.036 110.536 C 79.213 110.814 78.681 110.863 76.495 110.863 L 73.922 110.863 Z M 81.172 105.206 C 81.162 103.465 80.532 102.33 79.263 101.768 C 78.822 101.573 78.047 101.42 77.235 101.369 L 75.92 101.288 L 75.92 109.124 L 77.222 109.042 C 79.987 108.868 81.186 107.703 81.172 105.206 Z M 133.711 99.524 C 134.976 99.562 135.356 99.639 136.103 100.005 C 140.373 102.098 140.365 108.406 136.092 110.509 C 135.286 110.905 135.045 110.945 133.468 110.945 C 131.794 110.945 131.698 110.926 130.744 110.408 C 129.561 109.765 128.767 108.926 128.204 107.723 C 127.837 106.939 127.788 106.638 127.789 105.174 C 127.789 103.813 127.85 103.382 128.126 102.783 C 128.756 101.416 130.024 100.272 131.509 99.733 C 132.01 99.551 132.63 99.492 133.711 99.524 Z M 136.731 103.581 C 136.37 102.704 135.264 101.733 134.367 101.507 C 133.479 101.283 133.084 101.292 132.349 101.555 C 130.614 102.176 129.765 103.545 129.891 105.519 C 129.973 106.814 130.587 107.85 131.669 108.52 C 133.484 109.645 135.856 108.807 136.747 106.727 C 137.081 105.946 137.073 104.415 136.731 103.581 Z M 142.465 99.637 L 145.108 99.64 C 147.343 99.643 147.848 99.689 148.382 99.937 C 149.697 100.547 150.355 101.685 150.355 103.352 C 150.355 105.02 149.697 106.159 148.382 106.769 C 147.899 106.992 147.37 107.062 146.134 107.065 L 144.516 107.068 L 144.516 110.863 L 142.465 110.863 Z M 148.058 103.935 C 148.321 103.148 148.044 102.212 147.411 101.741 C 147.07 101.489 146.674 101.399 145.714 101.355 L 144.463 101.298 L 144.463 105.318 L 145.714 105.261 C 147.189 105.194 147.742 104.881 148.058 103.935 Z M 163.827 99.637 L 166.391 99.638 C 167.801 99.638 169.206 99.708 169.513 99.794 C 170.146 99.97 171.142 100.919 171.392 101.584 C 171.483 101.829 171.559 102.5 171.559 103.075 C 171.559 104.345 171.136 105.334 170.369 105.856 L 169.844 106.213 L 171.096 108.461 C 171.785 109.698 172.347 110.744 172.347 110.786 C 172.347 110.828 171.819 110.863 171.174 110.863 L 170 110.863 L 167.74 106.752 L 165.878 106.752 L 165.878 110.863 L 163.827 110.863 Z M 169.364 103.47 C 169.489 102.802 169.141 101.904 168.658 101.645 C 168.466 101.542 167.75 101.419 167.067 101.372 L 165.825 101.287 L 165.825 104.968 L 166.673 104.968 C 168.392 104.968 169.164 104.539 169.364 103.47 Z" fill="rgb(255,255,255)"></path></g></svg>