<svg width="84" height="49" viewBox="0 0 84 49" fill="none" xmlns="http://www.w3.org/2000/svg" role="img" aria-label="Aftrkr Logo">
<path fill-rule="evenodd" clip-rule="evenodd" d="M0 22.6179V11.3089V0H1.83035H3.6607V4.37343V8.74679L4.06553 8.36038C5.10001 7.37291 6.52951 6.64561 8.121 6.29686C8.53316 6.20659 8.92531 6.17985 9.77276 6.18423C10.9966 6.19064 11.5802 6.30092 12.6445 6.72706C14.6631 7.53542 16.4031 9.35963 17.2155 11.5194C17.881 13.2884 17.9066 15.6473 17.2796 17.4127C16.4749 19.6786 14.7514 21.5188 12.6432 22.3629C11.5802 22.7885 10.9962 22.8989 9.77276 22.9053C8.92531 22.9096 8.53316 22.8829 8.121 22.7926C6.52703 22.4434 5.1476 21.7417 4.13463 20.7649L3.6607 20.3079V21.4629V22.6179H1.83035H0ZM80.1432 8.71404V4.35702V0H82.0716H84V11.3089V22.6179H82.0716H80.1432V21.4967V20.3755L79.7673 20.7334C78.7331 21.7185 77.5838 22.3445 76.1051 22.7284C75.4621 22.8953 75.3089 22.91 74.2599 22.9055C73.2483 22.9011 73.0435 22.8812 72.4894 22.7331C70.9503 22.3216 69.8139 21.6792 68.7349 20.6108C67.6544 19.541 66.9083 18.2115 66.5043 16.6366C66.2772 15.7514 66.2159 14.0112 66.3786 13.0739C66.504 12.3524 66.8419 11.3016 67.1391 10.7094C68.1377 8.7192 69.9447 7.14157 71.9393 6.51853C72.8839 6.22345 73.1989 6.17887 74.3253 6.18096C75.2707 6.18273 75.4887 6.20436 76.0903 6.35583C77.5381 6.72033 78.7316 7.36958 79.7673 8.35607L80.1432 8.71404ZM23.4272 8.87727C24.1311 7.47973 25.3293 6.54468 26.8016 6.24385C27.5891 6.08297 28.7649 6.14357 29.9883 6.40819L30.3315 6.48245V8.37274C30.3315 9.41238 30.3192 10.263 30.3041 10.263C30.289 10.263 29.9728 10.1918 29.6013 10.1046C28.7096 9.89553 28.0535 9.84532 27.3932 9.93573C25.1159 10.2475 23.9592 11.9022 23.5998 15.3619C23.5644 15.7034 23.5348 17.4757 23.5342 19.3004L23.5331 22.6179H21.572H19.6109V14.5774V6.53697H21.4086H23.2062L23.2064 7.92607L23.2066 9.31518L23.4272 8.87727ZM32.6428 6.90206C33.5225 6.64626 34.9499 6.37838 36.1494 6.24385C37.6704 6.0733 39.4418 6.13978 40.7178 6.41544C43.5328 7.02338 45.248 8.51355 45.8992 10.9167L46.0497 11.4724L46.0701 17.0451L46.0904 22.6179H44.323H42.5556L42.5546 21.523L42.5535 20.428L42.1787 20.8338C41.2874 21.7986 40.0503 22.4683 38.5681 22.7883C37.8002 22.9541 35.9668 22.9559 35.1444 22.7918C32.6765 22.2992 31.1669 21.1773 30.5555 19.3814C30.4085 18.9497 30.3726 18.7119 30.3484 18.0093C30.2954 16.4689 30.6101 15.5798 31.5276 14.6771C32.3014 13.9158 33.1067 13.5251 34.5951 13.189C35.1614 13.0611 35.4387 13.0503 38.7876 13.0258L42.3737 12.9995L42.3463 12.3013C42.3142 11.4857 42.1765 11.1229 41.7291 10.6753C40.4405 9.38591 37.0498 9.28125 33.2568 10.4138L32.2926 10.7017V8.85275V7.00384L32.6428 6.90206ZM13.8568 14.5447C13.8596 12.0908 12.0409 10.0216 9.58032 9.67935C8.95211 9.59201 8.59284 9.59803 7.99863 9.70583C7.39984 9.81453 7.12595 9.90488 6.60233 10.1666C5.45104 10.742 4.58895 11.7127 4.16535 12.9105C3.01962 16.1507 5.41418 19.4802 8.89027 19.4802C11.6648 19.4802 13.8536 17.305 13.8568 14.5447ZM79.6149 12.3821C78.9909 11.1096 77.8183 10.1554 76.4479 9.80499C74.6562 9.34668 72.8308 9.83584 71.5798 11.1095C70.6237 12.0829 70.1448 13.2388 70.1432 14.5774C70.1425 15.1679 70.3019 15.9652 70.524 16.483C70.9307 17.4311 71.8307 18.4078 72.7237 18.8703C73.6257 19.3375 74.0868 19.4475 75.1424 19.4475C76.1962 19.4475 76.6549 19.3384 77.5611 18.872C78.2834 18.5003 79.1491 17.6343 79.5343 16.8981C79.9589 16.0866 80.1055 15.4807 80.1041 14.5447C80.1027 13.6252 79.9984 13.1639 79.6149 12.3821ZM42.2661 16.6685C42.3535 16.4104 42.4249 16.1726 42.4249 16.14C42.4249 16.0432 36.4663 16.0768 35.9159 16.1767C34.7163 16.3946 34.1158 16.994 34.2075 17.8822C34.3224 18.9951 35.4557 19.6139 37.3713 19.6096C39.8838 19.604 41.6275 18.5563 42.2661 16.6685ZM28.4144 28.304C29.3183 26.5687 31.1942 25.2774 33.246 24.9782C34.287 24.8264 35.8597 24.9411 37.1264 25.2613C37.4907 25.3534 37.8024 25.4288 37.819 25.4288C37.8355 25.4288 37.849 26.2703 37.849 27.2988C37.849 29.0541 37.842 29.166 37.7346 29.1218C37.2071 28.9047 36.4889 28.6672 36.0527 28.5655C34.071 28.1035 32.4641 28.6188 31.8225 29.922C31.636 30.3009 31.6068 30.4327 31.5841 30.9964L31.5583 31.6389H33.8212H36.084V33.3712V35.1035H33.8288H31.5735V41.5751V48.0467H29.6451H27.7167V41.5751V35.1035H26.6054H25.4942V33.3712V31.6389H26.6054H27.7167L27.7173 31.0996C27.7182 30.0638 27.9207 29.2517 28.4144 28.304ZM53.93 29.4163V27.4553V25.4942H55.8911H57.8521V27.4553V29.4163H55.8911H53.93ZM10.7043 31.9152C12.0423 31.5856 12.7483 31.4736 14.6755 31.2847C15.1741 31.2359 16.9667 31.3128 17.6165 31.411C20.5831 31.8592 22.5443 33.2378 23.2998 35.4062C23.3751 35.6222 23.4357 35.7896 23.4846 35.9603C23.6945 36.6927 23.6902 37.4864 23.7117 42.4412L23.7359 48.0467H21.9349H20.1339V46.8249V45.603L19.7201 46.0292C18.9108 46.8627 17.7744 47.5092 16.5566 47.8289C15.6905 48.0563 14.0236 48.1155 13.005 47.9549C10.3406 47.5351 8.59448 46.2057 8.05982 44.1899C7.90332 43.5998 7.9045 42.2234 8.06197 41.6405C8.50426 40.0033 9.71282 38.9434 11.709 38.4419C12.8615 38.1523 13.518 38.1105 16.9101 38.1105H20.0221L19.9857 37.4504C19.9547 36.886 19.9197 36.73 19.7447 36.3745C19.5089 35.8955 19.168 35.5749 18.5977 35.2961C17.893 34.9515 17.2816 34.8329 16.0126 34.7944C14.0423 34.7348 13.0223 34.9057 9.98521 35.804C9.87814 35.8356 9.87082 35.7186 9.87082 33.9792V32.1206L10.7043 31.9152ZM42.9444 33.9508C43.6714 32.502 44.9571 31.5695 46.5784 31.315C47.2394 31.2113 48.7532 31.3357 49.5829 31.5621L49.779 31.6156L49.7963 33.5145L49.8136 35.4134L49.208 35.2515C48.3799 35.0302 47.1526 34.9767 46.4561 35.1317C44.9558 35.4655 43.9314 36.5888 43.4411 38.438C43.0764 39.8135 43.0584 40.0656 43.0302 44.2062L43.0039 48.0467H41.0802H39.1564V39.8428V31.6389H40.9214H42.6864V33.0519V34.465L42.9444 33.9508ZM51.7074 35.1689V33.4039V31.6389H54.7798H57.8521V39.8428V48.0467H55.9237H53.9953V41.6078V35.1689H52.8514H51.7074ZM17.7714 44.1538C18.8408 43.6482 19.629 42.7035 19.9638 41.5261L20.0614 41.1829L17.205 41.1914C15.634 41.196 14.1285 41.2253 13.8595 41.2565C12.3811 41.4276 11.6127 42.1489 11.8295 43.1619C12.0548 44.2145 13.0781 44.7128 15.0142 44.7128C16.1036 44.7128 16.9536 44.5405 17.7714 44.1538Z" fill="white"></path>
<path d="M56.316 6.21724C54.8325 6.431 53.3358 7.18249 52.1486 8.30946L51.7728 8.66631V7.60164V6.53697H49.9751H48.1774V14.5774V22.6179H50.1385H52.0996V18.3654C52.0996 13.6124 52.0988 13.6224 52.5542 12.649C53.1551 11.3644 54.1303 10.5065 55.5315 10.0296C55.9618 9.88317 56.2052 9.84611 56.9045 9.82055C57.9016 9.78414 58.2991 9.85101 58.956 10.1658C59.7073 10.5259 60.2341 11.1368 60.5432 12.0063C60.8673 12.9181 60.8582 12.374 60.8587 30.8054L60.8591 48.0467H62.7875H64.716V45.4026V42.7584L65.484 42.0702L66.2521 41.3821L69.5863 44.7143L72.9203 48.0467H75.6654H78.4106L73.737 43.3728L69.0634 38.6989L72.593 35.1689L76.1225 31.6389L73.5407 31.6358L70.9588 31.6326L67.8391 34.7899L64.7193 37.9471L64.7177 25.6387C64.7165 17.3072 64.6933 13.1267 64.6457 12.7001C64.4426 10.879 63.7541 9.36721 62.5941 8.1952C61.5116 7.10163 60.3202 6.49787 58.7384 6.2413C58.0995 6.13769 56.9474 6.12625 56.316 6.21724Z" fill="white"></path>
</svg>