<svg xmlns="http://www.w3.org/2000/svg" xmlns:xlink="http://www.w3.org/1999/xlink" viewBox="0 0 200 138.566" overflow="visible"><path d="M 0.001 26.842 L 0.001 0 L 8.721 0 L 8.721 20.796 L 9.836 19.738 C 13.672 16.099 19.689 14.097 24.981 14.698 C 34.511 15.782 41.708 23.656 42.19 33.527 C 42.378 37.355 41.708 40.626 40.068 43.896 C 39.001 46.024 38.349 46.94 36.641 48.713 C 33.237 52.246 29.099 54.207 24.275 54.572 C 19.271 54.949 13.593 52.962 9.958 49.562 L 8.721 48.405 L 8.721 53.683 L 0 53.683 L 0 26.841 Z M 190.698 0 L 200 0 L 200 53.683 L 190.698 53.683 L 190.698 48.587 L 189.68 49.546 C 186.023 52.995 180.743 54.908 175.78 54.583 C 167.495 54.04 160.703 48.338 158.383 39.978 C 157.904 38.251 157.857 37.778 157.853 34.69 C 157.85 31.743 157.909 31.074 158.303 29.58 C 159.26 25.964 160.747 23.245 163.169 20.686 C 165.141 18.604 166.605 17.528 169.033 16.378 C 171.687 15.121 173.754 14.666 176.842 14.661 C 178.792 14.657 179.745 14.751 181.068 15.079 C 184.377 15.899 187.225 17.398 189.584 19.56 L 190.698 20.581 Z M 70.572 15.046 L 72.287 15.376 L 72.287 24.464 L 71.851 24.362 C 69.324 23.775 68.432 23.65 66.764 23.649 C 64.58 23.648 63.29 23.929 61.826 24.726 C 59.809 25.823 57.925 28.484 57.102 31.396 C 56.238 34.454 56.16 35.447 56.064 44.719 L 55.972 53.683 L 46.705 53.683 L 46.705 15.504 L 55.233 15.504 L 55.233 22.145 L 55.948 20.714 C 57.376 17.859 60.39 15.564 63.663 14.84 C 65.296 14.479 68.05 14.561 70.572 15.046 Z M 98.869 15.709 C 103.208 16.995 106.444 19.523 108.114 22.93 C 109.638 26.037 109.567 25.239 109.64 40.262 L 109.705 53.683 L 101.163 53.683 L 101.163 48.868 L 100.049 49.974 C 96.515 53.483 91.069 55.141 85.288 54.469 C 80.168 53.874 76.045 51.807 74.066 48.844 C 71.332 44.75 71.524 38.75 74.498 35.331 C 76.042 33.556 78.83 32.14 82.268 31.384 C 84.05 30.992 84.869 30.95 92.491 30.867 L 100.775 30.776 L 100.775 29.283 C 100.775 24.956 97.477 22.977 90.31 23.003 C 86.654 23.016 84.218 23.382 80.136 24.53 C 78.75 24.92 77.419 25.283 77.177 25.336 L 76.737 25.434 L 76.789 21.014 L 76.842 16.595 L 78.198 16.243 C 80.228 15.717 84.544 14.949 86.628 14.742 C 90.509 14.357 95.691 14.767 98.869 15.709 Z M 141.244 15.113 C 147.491 16.63 151.886 21.19 153.54 27.873 C 153.955 29.547 153.957 29.686 154.062 59.869 L 154.167 90.183 L 161.434 82.787 L 168.702 75.391 L 174.855 75.39 C 178.239 75.389 181.008 75.454 181.008 75.534 C 181.008 75.614 177.302 79.386 172.772 83.915 L 164.535 92.15 L 175.581 103.198 C 181.657 109.274 186.628 114.311 186.628 114.39 C 186.628 114.47 183.728 114.535 180.184 114.535 L 173.739 114.535 L 165.795 106.589 C 161.426 102.219 157.786 98.644 157.708 98.644 C 157.629 98.644 156.779 99.349 155.817 100.212 L 154.07 101.78 L 154.07 114.535 L 144.772 114.535 L 144.721 72.336 L 144.671 30.136 L 144.204 28.816 C 143.292 26.24 141.586 24.503 139.205 23.721 C 137.692 23.226 134.31 23.224 132.655 23.719 C 129.484 24.666 126.636 26.974 125.324 29.66 C 124.03 32.31 124.031 32.296 124.031 43.549 L 124.031 53.683 L 114.729 53.683 L 114.729 15.504 L 123.256 15.504 L 123.256 20.587 L 124.471 19.451 C 127.229 16.871 130.393 15.346 134.267 14.731 C 135.89 14.472 139.397 14.664 141.244 15.113 Z M 24.418 23.367 C 22.89 22.916 20.327 22.823 18.702 23.159 C 16.52 23.61 14.281 24.829 12.685 26.436 C 10.391 28.747 9.275 31.445 9.286 34.662 C 9.309 41.521 14.89 46.662 21.882 46.266 C 28.152 45.909 32.931 40.863 32.943 34.585 C 32.952 29.43 29.479 24.858 24.419 23.367 Z M 176.769 23.074 C 172.302 23.871 168.475 27.398 167.351 31.755 C 166.952 33.299 166.95 35.969 167.344 37.5 C 168.171 40.704 170.46 43.564 173.353 45.006 C 175.419 46.036 176.287 46.222 178.973 46.209 C 181.189 46.198 181.65 46.137 182.799 45.701 C 185.874 44.533 188.184 42.462 189.51 39.685 C 190.415 37.788 190.698 36.562 190.698 34.527 C 190.698 29.439 187.189 24.846 182.171 23.367 C 180.84 22.974 178.144 22.828 176.769 23.074 Z M 100.887 38.67 L 101.011 38.179 L 94.45 38.204 C 87.526 38.231 85.508 38.356 84.144 38.842 C 81.838 39.662 80.857 41.553 81.696 43.56 C 82.554 45.613 84.895 46.59 88.954 46.589 C 95.421 46.589 99.596 43.819 100.887 38.671 Z M 85.466 59.505 C 86.158 59.615 87.488 59.89 88.421 60.115 L 90.116 60.526 L 90.116 64.974 C 90.116 69.132 90.095 69.413 89.778 69.287 C 89.591 69.213 88.522 68.836 87.403 68.449 C 85.463 67.779 85.247 67.746 82.752 67.74 C 80.211 67.733 80.098 67.75 78.845 68.344 C 76.395 69.505 75.194 71.378 75.194 74.038 L 75.194 75.387 L 86.047 75.387 L 86.047 83.527 L 75.194 83.527 L 75.194 114.535 L 65.892 114.535 L 65.892 83.527 L 60.659 83.527 L 60.659 75.387 L 65.833 75.387 L 65.952 73.498 C 66.103 71.114 66.469 69.691 67.436 67.733 C 69.528 63.493 73.25 60.698 78.295 59.579 C 79.628 59.283 83.792 59.24 85.466 59.505 Z M 128.489 60.659 L 137.791 60.659 L 137.791 69.961 L 128.489 69.961 Z M 41.183 74.633 C 43.895 74.964 46.415 75.685 48.617 76.761 C 50.351 77.608 50.873 77.984 52.316 79.426 C 54.172 81.28 55.085 82.795 55.844 85.274 C 56.286 86.72 56.288 86.774 56.349 100.63 L 56.41 114.535 L 47.868 114.535 L 47.868 108.681 L 46.349 110.106 C 44.566 111.778 42.54 112.92 40.02 113.675 C 38.562 114.111 37.787 114.213 35.304 114.293 C 32.011 114.399 30.279 114.199 27.81 113.429 C 23.051 111.944 19.954 108.861 19.09 104.748 C 18.546 102.159 18.854 99.245 19.898 97.096 C 20.63 95.59 22.648 93.625 24.333 92.776 C 27.846 91.007 30.139 90.701 39.874 90.699 L 47.481 90.698 L 47.479 89.196 C 47.474 85.098 44.579 83.092 38.265 82.813 C 34.419 82.642 30.734 83.174 25.943 84.593 C 24.683 84.966 23.607 85.272 23.551 85.272 C 23.496 85.272 23.45 83.282 23.45 80.85 L 23.45 76.429 L 26.017 75.823 C 28.296 75.286 31.358 74.753 33.333 74.55 C 34.923 74.387 39.573 74.436 41.183 74.633 Z M 117.684 75.022 L 118.605 75.232 L 118.605 79.78 C 118.605 84.021 118.582 84.322 118.266 84.229 C 110.77 82.024 105.831 84.167 103.726 90.537 C 102.623 93.872 102.481 95.457 102.378 105.475 L 102.285 114.535 L 93.023 114.535 L 93.023 75.387 L 101.744 75.387 L 101.749 78.537 L 101.753 81.686 L 102.11 80.911 C 103.039 78.895 105.18 76.68 107.16 75.69 C 108.086 75.226 109.644 74.69 110.466 74.552 C 112.136 74.273 115.317 74.48 117.684 75.022 Z M 123.062 75.387 L 137.791 75.387 L 137.791 114.535 L 128.489 114.535 L 128.489 83.721 L 123.062 83.721 Z M 47.675 98.165 C 47.675 97.99 33.493 98.097 32.388 98.28 C 31.144 98.487 29.736 99.082 29.096 99.67 C 27.645 101.005 27.856 103.66 29.513 104.923 C 30.95 106.019 32.144 106.285 35.659 106.292 C 38.485 106.298 39.025 106.246 40.305 105.844 C 43.122 104.959 44.913 103.686 46.239 101.626 C 46.756 100.822 47.674 98.608 47.674 98.165 Z M 137.206 122.481 C 138.649 122.481 138.76 122.51 138.86 122.917 C 139.309 124.838 139.755 126.76 140.197 128.683 C 140.874 131.614 141.48 133.881 141.545 133.721 C 141.61 133.561 142.299 130.989 143.077 128.004 L 144.49 122.578 L 145.879 122.521 L 147.268 122.464 L 147.464 123.199 C 147.988 125.219 148.506 127.241 149.02 129.264 C 149.767 132.195 150.381 134.411 150.383 134.19 C 150.387 133.851 152.709 123.854 153.024 122.82 C 153.111 122.534 153.369 122.481 154.664 122.481 C 155.51 122.481 156.206 122.546 156.211 122.626 C 156.216 122.706 155.322 126.281 154.225 130.57 L 152.229 138.37 L 148.658 138.372 L 148.391 137.452 C 148.245 136.945 147.617 134.55 146.998 132.13 L 145.872 127.727 L 144.734 132.13 C 144.109 134.55 143.497 136.945 143.374 137.452 L 143.151 138.372 L 139.55 138.372 L 139.358 137.645 C 138.725 135.247 135.659 122.843 135.659 122.679 C 135.659 122.561 136.283 122.481 137.206 122.481 Z M 125.485 124.274 C 127.116 124.315 127.597 124.404 128.527 124.84 C 129.935 125.499 131.181 126.746 131.893 128.21 C 132.396 129.243 132.453 129.558 132.454 131.298 C 132.456 133.027 132.396 133.368 131.897 134.454 C 131.171 136.033 129.525 137.592 127.962 138.18 C 127.016 138.536 126.539 138.59 124.903 138.529 C 123.146 138.462 122.852 138.395 121.751 137.804 C 120.299 137.025 119.323 135.997 118.632 134.52 C 117.914 132.983 117.805 130.244 118.402 128.654 C 119.093 126.809 120.723 125.243 122.69 124.535 C 123.303 124.314 124.097 124.24 125.485 124.274 Z M 105.814 126.357 L 108.709 126.357 C 111.715 126.357 112.379 126.482 113.156 127.193 C 114.686 128.596 114.69 131.262 113.163 132.746 L 112.458 133.431 L 113.787 135.834 C 114.519 137.156 115.116 138.268 115.116 138.305 C 115.116 138.342 114.528 138.371 113.808 138.37 L 112.5 138.367 L 111.338 136.142 L 110.175 133.917 L 108.14 133.915 L 108.14 138.372 L 105.814 138.372 Z M 125.775 126.705 C 122.528 126.28 119.93 129.641 121.004 132.877 C 122.139 136.295 126.168 137.207 128.483 134.57 C 129.347 133.586 129.671 132.729 129.677 131.408 C 129.686 129.53 128.886 128.09 127.389 127.292 C 126.874 127.018 126.149 126.754 125.775 126.705 Z M 98.45 128.347 C 99.654 128.399 100.315 128.532 100.908 128.839 C 101.354 129.069 101.764 129.332 101.82 129.422 C 101.875 129.513 101.71 129.896 101.454 130.275 L 100.985 130.963 L 100.072 130.501 C 97.224 129.059 94.335 131.28 95.137 134.295 C 95.414 135.334 96.316 136.339 97.248 136.647 C 98.708 137.129 100.581 136.349 100.581 135.258 C 100.581 134.725 100.534 134.69 99.807 134.69 L 99.031 134.69 L 99.031 133.14 L 102.326 133.14 L 102.326 138.372 L 101.551 138.372 C 100.991 138.372 100.775 138.291 100.775 138.081 C 100.775 137.719 100.813 137.715 99.903 138.178 C 98.966 138.656 97.013 138.699 95.973 138.266 C 94.174 137.515 93.026 135.628 93.03 133.431 C 93.033 131.192 93.952 129.657 95.833 128.745 C 96.678 128.335 97.014 128.284 98.45 128.347 Z M 109.351 128.298 L 108.14 128.295 L 108.14 131.977 L 109.312 131.977 C 110.852 131.977 111.549 131.609 111.838 130.645 C 112.108 129.74 111.802 128.928 111.047 128.545 C 110.78 128.411 110.017 128.299 109.351 128.298 Z" fill="rgb(255,255,255)"></path></svg>