<svg width="71" height="57" viewBox="0 0 71 57" fill="none" xmlns="http://www.w3.org/2000/svg">
<path d="M60.4522 16.7066V38.3733C60.4522 42.3516 58.8719 46.1669 56.0589 48.9799C53.2458 51.793 49.4305 53.3733 45.4522 53.3733C41.474 53.3733 37.6587 51.793 34.8456 48.9799C32.0326 46.1669 30.4522 42.3516 30.4522 38.3733V15.04C30.4522 12.8298 29.5743 10.7102 28.0115 9.14744C26.4487 7.58464 24.3291 6.70664 22.1189 6.70664C19.9088 6.70664 17.7892 7.58464 16.2264 9.14744C14.6636 10.7102 13.7856 12.8298 13.7856 15.04V37.2733C16.0106 38.0597 17.8859 39.6073 19.0801 41.6427C20.2743 43.678 20.7105 46.0701 20.3116 48.3959C19.9127 50.7218 18.7044 52.8318 16.9002 54.3529C15.096 55.874 12.8121 56.7083 10.4522 56.7083C8.09238 56.7083 5.80848 55.874 4.00428 54.3529C2.20013 52.8318 0.991781 50.7218 0.592861 48.3959C0.193941 46.0701 0.630141 43.678 1.82436 41.6427C3.01858 39.6073 4.89388 38.0597 7.11888 37.2733V15.04C7.11888 11.0617 8.69928 7.24644 11.5123 4.43344C14.3254 1.62034 18.1407 0.0400391 22.1189 0.0400391C26.0972 0.0400391 29.9125 1.62034 32.7255 4.43344C35.5386 7.24644 37.1189 11.0617 37.1189 15.04V38.3733C37.1189 40.5834 37.9969 42.7031 39.5597 44.2659C41.1225 45.8287 43.2421 46.7066 45.4522 46.7066C47.6624 46.7066 49.782 45.8287 51.3448 44.2659C52.9076 42.7031 53.7856 40.5834 53.7856 38.3733V16.7066H43.7856L57.1189 0.0400391L70.4522 16.7066H60.4522ZM10.4522 43.3733C9.56818 43.3733 8.72028 43.7245 8.09518 44.3496C7.47008 44.9747 7.11888 45.8226 7.11888 46.7066C7.11888 47.5907 7.47008 48.4385 8.09518 49.0637C8.72028 49.6888 9.56818 50.04 10.4522 50.04C11.3363 50.04 12.1842 49.6888 12.8093 49.0637C13.4344 48.4385 13.7856 47.5907 13.7856 46.7066C13.7856 45.8226 13.4344 44.9747 12.8093 44.3496C12.1842 43.7245 11.3363 43.3733 10.4522 43.3733Z" fill="#109E5A"/>
</svg>
